G04 #@! TF.FileFunction,Legend,Top*
%FSLAX46Y46*%
G04 Gerber Fmt 4.6, Leading zero omitted, Abs format (unit mm)*
G04 Created by KiCad (PCBNEW 4.0.5) date 09/19/17 16:04:32*
%MOMM*%
%LPD*%
G01*
G04 APERTURE LIST*
%ADD10C,0.100000*%
%ADD11C,0.120000*%
%ADD12C,0.150000*%
G04 APERTURE END LIST*
D10*
D11*
X85030000Y-54440000D02*
X100390000Y-54440000D01*
X100390000Y-54440000D02*
X100390000Y-51780000D01*
X100390000Y-51780000D02*
X85030000Y-51780000D01*
X85030000Y-51780000D02*
X85030000Y-54440000D01*
X85980000Y-51780000D02*
X85980000Y-45780000D01*
X85980000Y-45780000D02*
X86740000Y-45780000D01*
X86740000Y-45780000D02*
X86740000Y-51780000D01*
X86040000Y-51780000D02*
X86040000Y-45780000D01*
X86160000Y-51780000D02*
X86160000Y-45780000D01*
X86280000Y-51780000D02*
X86280000Y-45780000D01*
X86400000Y-51780000D02*
X86400000Y-45780000D01*
X86520000Y-51780000D02*
X86520000Y-45780000D01*
X86640000Y-51780000D02*
X86640000Y-45780000D01*
X85980000Y-54837071D02*
X85980000Y-54440000D01*
X86740000Y-54837071D02*
X86740000Y-54440000D01*
X85980000Y-57310000D02*
X85980000Y-56922929D01*
X86740000Y-57310000D02*
X86740000Y-56922929D01*
X87630000Y-54440000D02*
X87630000Y-51780000D01*
X88520000Y-51780000D02*
X88520000Y-45780000D01*
X88520000Y-45780000D02*
X89280000Y-45780000D01*
X89280000Y-45780000D02*
X89280000Y-51780000D01*
X88520000Y-54837071D02*
X88520000Y-54440000D01*
X89280000Y-54837071D02*
X89280000Y-54440000D01*
X88520000Y-57377071D02*
X88520000Y-56922929D01*
X89280000Y-57377071D02*
X89280000Y-56922929D01*
X90170000Y-54440000D02*
X90170000Y-51780000D01*
X91060000Y-51780000D02*
X91060000Y-45780000D01*
X91060000Y-45780000D02*
X91820000Y-45780000D01*
X91820000Y-45780000D02*
X91820000Y-51780000D01*
X91060000Y-54837071D02*
X91060000Y-54440000D01*
X91820000Y-54837071D02*
X91820000Y-54440000D01*
X91060000Y-57377071D02*
X91060000Y-56922929D01*
X91820000Y-57377071D02*
X91820000Y-56922929D01*
X92710000Y-54440000D02*
X92710000Y-51780000D01*
X93600000Y-51780000D02*
X93600000Y-45780000D01*
X93600000Y-45780000D02*
X94360000Y-45780000D01*
X94360000Y-45780000D02*
X94360000Y-51780000D01*
X93600000Y-54837071D02*
X93600000Y-54440000D01*
X94360000Y-54837071D02*
X94360000Y-54440000D01*
X93600000Y-57377071D02*
X93600000Y-56922929D01*
X94360000Y-57377071D02*
X94360000Y-56922929D01*
X95250000Y-54440000D02*
X95250000Y-51780000D01*
X96140000Y-51780000D02*
X96140000Y-45780000D01*
X96140000Y-45780000D02*
X96900000Y-45780000D01*
X96900000Y-45780000D02*
X96900000Y-51780000D01*
X96140000Y-54837071D02*
X96140000Y-54440000D01*
X96900000Y-54837071D02*
X96900000Y-54440000D01*
X96140000Y-57377071D02*
X96140000Y-56922929D01*
X96900000Y-57377071D02*
X96900000Y-56922929D01*
X97790000Y-54440000D02*
X97790000Y-51780000D01*
X98680000Y-51780000D02*
X98680000Y-45780000D01*
X98680000Y-45780000D02*
X99440000Y-45780000D01*
X99440000Y-45780000D02*
X99440000Y-51780000D01*
X98680000Y-54837071D02*
X98680000Y-54440000D01*
X99440000Y-54837071D02*
X99440000Y-54440000D01*
X98680000Y-57377071D02*
X98680000Y-56922929D01*
X99440000Y-57377071D02*
X99440000Y-56922929D01*
X86360000Y-59690000D02*
X85090000Y-59690000D01*
X85090000Y-59690000D02*
X85090000Y-58420000D01*
D12*
X111609000Y-79358000D02*
X111609000Y-78633000D01*
X97259000Y-79358000D02*
X97259000Y-78558000D01*
X97259000Y-65008000D02*
X97259000Y-65808000D01*
X111609000Y-65008000D02*
X111609000Y-65808000D01*
X111609000Y-79358000D02*
X110809000Y-79358000D01*
X111609000Y-65008000D02*
X110809000Y-65008000D01*
X97259000Y-65008000D02*
X98059000Y-65008000D01*
X97259000Y-79358000D02*
X98059000Y-79358000D01*
X111609000Y-78633000D02*
X112884000Y-78633000D01*
D11*
X122774000Y-77882000D02*
X122774000Y-78582000D01*
X121574000Y-78582000D02*
X121574000Y-77882000D01*
D12*
X83231000Y-73137000D02*
X83231000Y-73487000D01*
X88981000Y-73137000D02*
X88981000Y-73587000D01*
X88981000Y-80787000D02*
X88981000Y-80337000D01*
X83231000Y-80787000D02*
X83231000Y-80337000D01*
X83231000Y-73137000D02*
X88981000Y-73137000D01*
X83231000Y-80787000D02*
X88981000Y-80787000D01*
X83231000Y-73487000D02*
X81631000Y-73487000D01*
D11*
X111312000Y-103438000D02*
X111312000Y-98238000D01*
X88392000Y-103438000D02*
X111312000Y-103438000D01*
X85792000Y-98238000D02*
X111312000Y-98238000D01*
X88392000Y-103438000D02*
X88392000Y-100838000D01*
X88392000Y-100838000D02*
X85792000Y-100838000D01*
X85792000Y-100838000D02*
X85792000Y-98238000D01*
X87122000Y-103438000D02*
X85792000Y-103438000D01*
X85792000Y-103438000D02*
X85792000Y-102108000D01*
X97246278Y-93889723D02*
G75*
G03X101857580Y-93890000I2305722J1179723D01*
G01*
X97246278Y-91530277D02*
G75*
G02X101857580Y-91530000I2305722J-1179723D01*
G01*
X97246278Y-91530277D02*
G75*
G03X97246420Y-93890000I2305722J-1179723D01*
G01*
X99552000Y-95260000D02*
X99552000Y-90160000D01*
X99512000Y-95260000D02*
X99512000Y-93690000D01*
X99512000Y-91730000D02*
X99512000Y-90160000D01*
X99472000Y-95259000D02*
X99472000Y-93690000D01*
X99472000Y-91730000D02*
X99472000Y-90161000D01*
X99432000Y-95258000D02*
X99432000Y-93690000D01*
X99432000Y-91730000D02*
X99432000Y-90162000D01*
X99392000Y-95256000D02*
X99392000Y-93690000D01*
X99392000Y-91730000D02*
X99392000Y-90164000D01*
X99352000Y-95253000D02*
X99352000Y-93690000D01*
X99352000Y-91730000D02*
X99352000Y-90167000D01*
X99312000Y-95249000D02*
X99312000Y-93690000D01*
X99312000Y-91730000D02*
X99312000Y-90171000D01*
X99272000Y-95245000D02*
X99272000Y-93690000D01*
X99272000Y-91730000D02*
X99272000Y-90175000D01*
X99232000Y-95241000D02*
X99232000Y-93690000D01*
X99232000Y-91730000D02*
X99232000Y-90179000D01*
X99192000Y-95235000D02*
X99192000Y-93690000D01*
X99192000Y-91730000D02*
X99192000Y-90185000D01*
X99152000Y-95229000D02*
X99152000Y-93690000D01*
X99152000Y-91730000D02*
X99152000Y-90191000D01*
X99112000Y-95223000D02*
X99112000Y-93690000D01*
X99112000Y-91730000D02*
X99112000Y-90197000D01*
X99072000Y-95216000D02*
X99072000Y-93690000D01*
X99072000Y-91730000D02*
X99072000Y-90204000D01*
X99032000Y-95208000D02*
X99032000Y-93690000D01*
X99032000Y-91730000D02*
X99032000Y-90212000D01*
X98992000Y-95199000D02*
X98992000Y-93690000D01*
X98992000Y-91730000D02*
X98992000Y-90221000D01*
X98952000Y-95190000D02*
X98952000Y-93690000D01*
X98952000Y-91730000D02*
X98952000Y-90230000D01*
X98912000Y-95180000D02*
X98912000Y-93690000D01*
X98912000Y-91730000D02*
X98912000Y-90240000D01*
X98872000Y-95170000D02*
X98872000Y-93690000D01*
X98872000Y-91730000D02*
X98872000Y-90250000D01*
X98831000Y-95158000D02*
X98831000Y-93690000D01*
X98831000Y-91730000D02*
X98831000Y-90262000D01*
X98791000Y-95146000D02*
X98791000Y-93690000D01*
X98791000Y-91730000D02*
X98791000Y-90274000D01*
X98751000Y-95134000D02*
X98751000Y-93690000D01*
X98751000Y-91730000D02*
X98751000Y-90286000D01*
X98711000Y-95120000D02*
X98711000Y-93690000D01*
X98711000Y-91730000D02*
X98711000Y-90300000D01*
X98671000Y-95106000D02*
X98671000Y-93690000D01*
X98671000Y-91730000D02*
X98671000Y-90314000D01*
X98631000Y-95092000D02*
X98631000Y-93690000D01*
X98631000Y-91730000D02*
X98631000Y-90328000D01*
X98591000Y-95076000D02*
X98591000Y-93690000D01*
X98591000Y-91730000D02*
X98591000Y-90344000D01*
X98551000Y-95060000D02*
X98551000Y-93690000D01*
X98551000Y-91730000D02*
X98551000Y-90360000D01*
X98511000Y-95043000D02*
X98511000Y-93690000D01*
X98511000Y-91730000D02*
X98511000Y-90377000D01*
X98471000Y-95025000D02*
X98471000Y-93690000D01*
X98471000Y-91730000D02*
X98471000Y-90395000D01*
X98431000Y-95006000D02*
X98431000Y-93690000D01*
X98431000Y-91730000D02*
X98431000Y-90414000D01*
X98391000Y-94986000D02*
X98391000Y-93690000D01*
X98391000Y-91730000D02*
X98391000Y-90434000D01*
X98351000Y-94966000D02*
X98351000Y-93690000D01*
X98351000Y-91730000D02*
X98351000Y-90454000D01*
X98311000Y-94944000D02*
X98311000Y-93690000D01*
X98311000Y-91730000D02*
X98311000Y-90476000D01*
X98271000Y-94922000D02*
X98271000Y-93690000D01*
X98271000Y-91730000D02*
X98271000Y-90498000D01*
X98231000Y-94899000D02*
X98231000Y-93690000D01*
X98231000Y-91730000D02*
X98231000Y-90521000D01*
X98191000Y-94875000D02*
X98191000Y-93690000D01*
X98191000Y-91730000D02*
X98191000Y-90545000D01*
X98151000Y-94850000D02*
X98151000Y-93690000D01*
X98151000Y-91730000D02*
X98151000Y-90570000D01*
X98111000Y-94823000D02*
X98111000Y-93690000D01*
X98111000Y-91730000D02*
X98111000Y-90597000D01*
X98071000Y-94796000D02*
X98071000Y-93690000D01*
X98071000Y-91730000D02*
X98071000Y-90624000D01*
X98031000Y-94768000D02*
X98031000Y-93690000D01*
X98031000Y-91730000D02*
X98031000Y-90652000D01*
X97991000Y-94738000D02*
X97991000Y-93690000D01*
X97991000Y-91730000D02*
X97991000Y-90682000D01*
X97951000Y-94707000D02*
X97951000Y-93690000D01*
X97951000Y-91730000D02*
X97951000Y-90713000D01*
X97911000Y-94675000D02*
X97911000Y-93690000D01*
X97911000Y-91730000D02*
X97911000Y-90745000D01*
X97871000Y-94642000D02*
X97871000Y-93690000D01*
X97871000Y-91730000D02*
X97871000Y-90778000D01*
X97831000Y-94607000D02*
X97831000Y-93690000D01*
X97831000Y-91730000D02*
X97831000Y-90813000D01*
X97791000Y-94571000D02*
X97791000Y-93690000D01*
X97791000Y-91730000D02*
X97791000Y-90849000D01*
X97751000Y-94533000D02*
X97751000Y-93690000D01*
X97751000Y-91730000D02*
X97751000Y-90887000D01*
X97711000Y-94493000D02*
X97711000Y-93690000D01*
X97711000Y-91730000D02*
X97711000Y-90927000D01*
X97671000Y-94452000D02*
X97671000Y-93690000D01*
X97671000Y-91730000D02*
X97671000Y-90968000D01*
X97631000Y-94409000D02*
X97631000Y-93690000D01*
X97631000Y-91730000D02*
X97631000Y-91011000D01*
X97591000Y-94364000D02*
X97591000Y-93690000D01*
X97591000Y-91730000D02*
X97591000Y-91056000D01*
X97551000Y-94316000D02*
X97551000Y-91104000D01*
X97511000Y-94266000D02*
X97511000Y-91154000D01*
X97471000Y-94214000D02*
X97471000Y-91206000D01*
X97431000Y-94158000D02*
X97431000Y-91262000D01*
X97391000Y-94100000D02*
X97391000Y-91320000D01*
X97351000Y-94037000D02*
X97351000Y-91383000D01*
X97311000Y-93971000D02*
X97311000Y-91449000D01*
X97271000Y-93899000D02*
X97271000Y-91521000D01*
X97231000Y-93822000D02*
X97231000Y-91598000D01*
X97191000Y-93738000D02*
X97191000Y-91682000D01*
X97151000Y-93644000D02*
X97151000Y-91776000D01*
X97111000Y-93539000D02*
X97111000Y-91881000D01*
X97071000Y-93417000D02*
X97071000Y-92003000D01*
X97031000Y-93269000D02*
X97031000Y-92151000D01*
X96991000Y-93064000D02*
X96991000Y-92356000D01*
X102752000Y-92710000D02*
X101552000Y-92710000D01*
X102152000Y-93360000D02*
X102152000Y-92060000D01*
X117776000Y-104942000D02*
X117776000Y-94702000D01*
X122417000Y-104942000D02*
X122417000Y-94702000D01*
X117776000Y-104942000D02*
X122417000Y-104942000D01*
X117776000Y-94702000D02*
X122417000Y-94702000D01*
X119286000Y-104942000D02*
X119286000Y-94702000D01*
X117776000Y-101672000D02*
X119286000Y-101672000D01*
X117776000Y-97971000D02*
X119286000Y-97971000D01*
X119345000Y-83597000D02*
X119345000Y-84297000D01*
X118145000Y-84297000D02*
X118145000Y-83597000D01*
X108548277Y-88610278D02*
G75*
G03X108548000Y-93221580I1179723J-2305722D01*
G01*
X110907723Y-88610278D02*
G75*
G02X110908000Y-93221580I-1179723J-2305722D01*
G01*
X110907723Y-88610278D02*
G75*
G03X108548000Y-88610420I-1179723J-2305722D01*
G01*
X107178000Y-90916000D02*
X112278000Y-90916000D01*
X107178000Y-90876000D02*
X108748000Y-90876000D01*
X110708000Y-90876000D02*
X112278000Y-90876000D01*
X107179000Y-90836000D02*
X108748000Y-90836000D01*
X110708000Y-90836000D02*
X112277000Y-90836000D01*
X107180000Y-90796000D02*
X108748000Y-90796000D01*
X110708000Y-90796000D02*
X112276000Y-90796000D01*
X107182000Y-90756000D02*
X108748000Y-90756000D01*
X110708000Y-90756000D02*
X112274000Y-90756000D01*
X107185000Y-90716000D02*
X108748000Y-90716000D01*
X110708000Y-90716000D02*
X112271000Y-90716000D01*
X107189000Y-90676000D02*
X108748000Y-90676000D01*
X110708000Y-90676000D02*
X112267000Y-90676000D01*
X107193000Y-90636000D02*
X108748000Y-90636000D01*
X110708000Y-90636000D02*
X112263000Y-90636000D01*
X107197000Y-90596000D02*
X108748000Y-90596000D01*
X110708000Y-90596000D02*
X112259000Y-90596000D01*
X107203000Y-90556000D02*
X108748000Y-90556000D01*
X110708000Y-90556000D02*
X112253000Y-90556000D01*
X107209000Y-90516000D02*
X108748000Y-90516000D01*
X110708000Y-90516000D02*
X112247000Y-90516000D01*
X107215000Y-90476000D02*
X108748000Y-90476000D01*
X110708000Y-90476000D02*
X112241000Y-90476000D01*
X107222000Y-90436000D02*
X108748000Y-90436000D01*
X110708000Y-90436000D02*
X112234000Y-90436000D01*
X107230000Y-90396000D02*
X108748000Y-90396000D01*
X110708000Y-90396000D02*
X112226000Y-90396000D01*
X107239000Y-90356000D02*
X108748000Y-90356000D01*
X110708000Y-90356000D02*
X112217000Y-90356000D01*
X107248000Y-90316000D02*
X108748000Y-90316000D01*
X110708000Y-90316000D02*
X112208000Y-90316000D01*
X107258000Y-90276000D02*
X108748000Y-90276000D01*
X110708000Y-90276000D02*
X112198000Y-90276000D01*
X107268000Y-90236000D02*
X108748000Y-90236000D01*
X110708000Y-90236000D02*
X112188000Y-90236000D01*
X107280000Y-90195000D02*
X108748000Y-90195000D01*
X110708000Y-90195000D02*
X112176000Y-90195000D01*
X107292000Y-90155000D02*
X108748000Y-90155000D01*
X110708000Y-90155000D02*
X112164000Y-90155000D01*
X107304000Y-90115000D02*
X108748000Y-90115000D01*
X110708000Y-90115000D02*
X112152000Y-90115000D01*
X107318000Y-90075000D02*
X108748000Y-90075000D01*
X110708000Y-90075000D02*
X112138000Y-90075000D01*
X107332000Y-90035000D02*
X108748000Y-90035000D01*
X110708000Y-90035000D02*
X112124000Y-90035000D01*
X107346000Y-89995000D02*
X108748000Y-89995000D01*
X110708000Y-89995000D02*
X112110000Y-89995000D01*
X107362000Y-89955000D02*
X108748000Y-89955000D01*
X110708000Y-89955000D02*
X112094000Y-89955000D01*
X107378000Y-89915000D02*
X108748000Y-89915000D01*
X110708000Y-89915000D02*
X112078000Y-89915000D01*
X107395000Y-89875000D02*
X108748000Y-89875000D01*
X110708000Y-89875000D02*
X112061000Y-89875000D01*
X107413000Y-89835000D02*
X108748000Y-89835000D01*
X110708000Y-89835000D02*
X112043000Y-89835000D01*
X107432000Y-89795000D02*
X108748000Y-89795000D01*
X110708000Y-89795000D02*
X112024000Y-89795000D01*
X107452000Y-89755000D02*
X108748000Y-89755000D01*
X110708000Y-89755000D02*
X112004000Y-89755000D01*
X107472000Y-89715000D02*
X108748000Y-89715000D01*
X110708000Y-89715000D02*
X111984000Y-89715000D01*
X107494000Y-89675000D02*
X108748000Y-89675000D01*
X110708000Y-89675000D02*
X111962000Y-89675000D01*
X107516000Y-89635000D02*
X108748000Y-89635000D01*
X110708000Y-89635000D02*
X111940000Y-89635000D01*
X107539000Y-89595000D02*
X108748000Y-89595000D01*
X110708000Y-89595000D02*
X111917000Y-89595000D01*
X107563000Y-89555000D02*
X108748000Y-89555000D01*
X110708000Y-89555000D02*
X111893000Y-89555000D01*
X107588000Y-89515000D02*
X108748000Y-89515000D01*
X110708000Y-89515000D02*
X111868000Y-89515000D01*
X107615000Y-89475000D02*
X108748000Y-89475000D01*
X110708000Y-89475000D02*
X111841000Y-89475000D01*
X107642000Y-89435000D02*
X108748000Y-89435000D01*
X110708000Y-89435000D02*
X111814000Y-89435000D01*
X107670000Y-89395000D02*
X108748000Y-89395000D01*
X110708000Y-89395000D02*
X111786000Y-89395000D01*
X107700000Y-89355000D02*
X108748000Y-89355000D01*
X110708000Y-89355000D02*
X111756000Y-89355000D01*
X107731000Y-89315000D02*
X108748000Y-89315000D01*
X110708000Y-89315000D02*
X111725000Y-89315000D01*
X107763000Y-89275000D02*
X108748000Y-89275000D01*
X110708000Y-89275000D02*
X111693000Y-89275000D01*
X107796000Y-89235000D02*
X108748000Y-89235000D01*
X110708000Y-89235000D02*
X111660000Y-89235000D01*
X107831000Y-89195000D02*
X108748000Y-89195000D01*
X110708000Y-89195000D02*
X111625000Y-89195000D01*
X107867000Y-89155000D02*
X108748000Y-89155000D01*
X110708000Y-89155000D02*
X111589000Y-89155000D01*
X107905000Y-89115000D02*
X108748000Y-89115000D01*
X110708000Y-89115000D02*
X111551000Y-89115000D01*
X107945000Y-89075000D02*
X108748000Y-89075000D01*
X110708000Y-89075000D02*
X111511000Y-89075000D01*
X107986000Y-89035000D02*
X108748000Y-89035000D01*
X110708000Y-89035000D02*
X111470000Y-89035000D01*
X108029000Y-88995000D02*
X108748000Y-88995000D01*
X110708000Y-88995000D02*
X111427000Y-88995000D01*
X108074000Y-88955000D02*
X108748000Y-88955000D01*
X110708000Y-88955000D02*
X111382000Y-88955000D01*
X108122000Y-88915000D02*
X111334000Y-88915000D01*
X108172000Y-88875000D02*
X111284000Y-88875000D01*
X108224000Y-88835000D02*
X111232000Y-88835000D01*
X108280000Y-88795000D02*
X111176000Y-88795000D01*
X108338000Y-88755000D02*
X111118000Y-88755000D01*
X108401000Y-88715000D02*
X111055000Y-88715000D01*
X108467000Y-88675000D02*
X110989000Y-88675000D01*
X108539000Y-88635000D02*
X110917000Y-88635000D01*
X108616000Y-88595000D02*
X110840000Y-88595000D01*
X108700000Y-88555000D02*
X110756000Y-88555000D01*
X108794000Y-88515000D02*
X110662000Y-88515000D01*
X108899000Y-88475000D02*
X110557000Y-88475000D01*
X109021000Y-88435000D02*
X110435000Y-88435000D01*
X109169000Y-88395000D02*
X110287000Y-88395000D01*
X109374000Y-88355000D02*
X110082000Y-88355000D01*
X109728000Y-94116000D02*
X109728000Y-92916000D01*
X109078000Y-93516000D02*
X110378000Y-93516000D01*
X126328277Y-75434278D02*
G75*
G03X126328000Y-80045580I1179723J-2305722D01*
G01*
X128687723Y-75434278D02*
G75*
G02X128688000Y-80045580I-1179723J-2305722D01*
G01*
X128687723Y-75434278D02*
G75*
G03X126328000Y-75434420I-1179723J-2305722D01*
G01*
X124958000Y-77740000D02*
X130058000Y-77740000D01*
X124958000Y-77700000D02*
X126528000Y-77700000D01*
X128488000Y-77700000D02*
X130058000Y-77700000D01*
X124959000Y-77660000D02*
X126528000Y-77660000D01*
X128488000Y-77660000D02*
X130057000Y-77660000D01*
X124960000Y-77620000D02*
X126528000Y-77620000D01*
X128488000Y-77620000D02*
X130056000Y-77620000D01*
X124962000Y-77580000D02*
X126528000Y-77580000D01*
X128488000Y-77580000D02*
X130054000Y-77580000D01*
X124965000Y-77540000D02*
X126528000Y-77540000D01*
X128488000Y-77540000D02*
X130051000Y-77540000D01*
X124969000Y-77500000D02*
X126528000Y-77500000D01*
X128488000Y-77500000D02*
X130047000Y-77500000D01*
X124973000Y-77460000D02*
X126528000Y-77460000D01*
X128488000Y-77460000D02*
X130043000Y-77460000D01*
X124977000Y-77420000D02*
X126528000Y-77420000D01*
X128488000Y-77420000D02*
X130039000Y-77420000D01*
X124983000Y-77380000D02*
X126528000Y-77380000D01*
X128488000Y-77380000D02*
X130033000Y-77380000D01*
X124989000Y-77340000D02*
X126528000Y-77340000D01*
X128488000Y-77340000D02*
X130027000Y-77340000D01*
X124995000Y-77300000D02*
X126528000Y-77300000D01*
X128488000Y-77300000D02*
X130021000Y-77300000D01*
X125002000Y-77260000D02*
X126528000Y-77260000D01*
X128488000Y-77260000D02*
X130014000Y-77260000D01*
X125010000Y-77220000D02*
X126528000Y-77220000D01*
X128488000Y-77220000D02*
X130006000Y-77220000D01*
X125019000Y-77180000D02*
X126528000Y-77180000D01*
X128488000Y-77180000D02*
X129997000Y-77180000D01*
X125028000Y-77140000D02*
X126528000Y-77140000D01*
X128488000Y-77140000D02*
X129988000Y-77140000D01*
X125038000Y-77100000D02*
X126528000Y-77100000D01*
X128488000Y-77100000D02*
X129978000Y-77100000D01*
X125048000Y-77060000D02*
X126528000Y-77060000D01*
X128488000Y-77060000D02*
X129968000Y-77060000D01*
X125060000Y-77019000D02*
X126528000Y-77019000D01*
X128488000Y-77019000D02*
X129956000Y-77019000D01*
X125072000Y-76979000D02*
X126528000Y-76979000D01*
X128488000Y-76979000D02*
X129944000Y-76979000D01*
X125084000Y-76939000D02*
X126528000Y-76939000D01*
X128488000Y-76939000D02*
X129932000Y-76939000D01*
X125098000Y-76899000D02*
X126528000Y-76899000D01*
X128488000Y-76899000D02*
X129918000Y-76899000D01*
X125112000Y-76859000D02*
X126528000Y-76859000D01*
X128488000Y-76859000D02*
X129904000Y-76859000D01*
X125126000Y-76819000D02*
X126528000Y-76819000D01*
X128488000Y-76819000D02*
X129890000Y-76819000D01*
X125142000Y-76779000D02*
X126528000Y-76779000D01*
X128488000Y-76779000D02*
X129874000Y-76779000D01*
X125158000Y-76739000D02*
X126528000Y-76739000D01*
X128488000Y-76739000D02*
X129858000Y-76739000D01*
X125175000Y-76699000D02*
X126528000Y-76699000D01*
X128488000Y-76699000D02*
X129841000Y-76699000D01*
X125193000Y-76659000D02*
X126528000Y-76659000D01*
X128488000Y-76659000D02*
X129823000Y-76659000D01*
X125212000Y-76619000D02*
X126528000Y-76619000D01*
X128488000Y-76619000D02*
X129804000Y-76619000D01*
X125232000Y-76579000D02*
X126528000Y-76579000D01*
X128488000Y-76579000D02*
X129784000Y-76579000D01*
X125252000Y-76539000D02*
X126528000Y-76539000D01*
X128488000Y-76539000D02*
X129764000Y-76539000D01*
X125274000Y-76499000D02*
X126528000Y-76499000D01*
X128488000Y-76499000D02*
X129742000Y-76499000D01*
X125296000Y-76459000D02*
X126528000Y-76459000D01*
X128488000Y-76459000D02*
X129720000Y-76459000D01*
X125319000Y-76419000D02*
X126528000Y-76419000D01*
X128488000Y-76419000D02*
X129697000Y-76419000D01*
X125343000Y-76379000D02*
X126528000Y-76379000D01*
X128488000Y-76379000D02*
X129673000Y-76379000D01*
X125368000Y-76339000D02*
X126528000Y-76339000D01*
X128488000Y-76339000D02*
X129648000Y-76339000D01*
X125395000Y-76299000D02*
X126528000Y-76299000D01*
X128488000Y-76299000D02*
X129621000Y-76299000D01*
X125422000Y-76259000D02*
X126528000Y-76259000D01*
X128488000Y-76259000D02*
X129594000Y-76259000D01*
X125450000Y-76219000D02*
X126528000Y-76219000D01*
X128488000Y-76219000D02*
X129566000Y-76219000D01*
X125480000Y-76179000D02*
X126528000Y-76179000D01*
X128488000Y-76179000D02*
X129536000Y-76179000D01*
X125511000Y-76139000D02*
X126528000Y-76139000D01*
X128488000Y-76139000D02*
X129505000Y-76139000D01*
X125543000Y-76099000D02*
X126528000Y-76099000D01*
X128488000Y-76099000D02*
X129473000Y-76099000D01*
X125576000Y-76059000D02*
X126528000Y-76059000D01*
X128488000Y-76059000D02*
X129440000Y-76059000D01*
X125611000Y-76019000D02*
X126528000Y-76019000D01*
X128488000Y-76019000D02*
X129405000Y-76019000D01*
X125647000Y-75979000D02*
X126528000Y-75979000D01*
X128488000Y-75979000D02*
X129369000Y-75979000D01*
X125685000Y-75939000D02*
X126528000Y-75939000D01*
X128488000Y-75939000D02*
X129331000Y-75939000D01*
X125725000Y-75899000D02*
X126528000Y-75899000D01*
X128488000Y-75899000D02*
X129291000Y-75899000D01*
X125766000Y-75859000D02*
X126528000Y-75859000D01*
X128488000Y-75859000D02*
X129250000Y-75859000D01*
X125809000Y-75819000D02*
X126528000Y-75819000D01*
X128488000Y-75819000D02*
X129207000Y-75819000D01*
X125854000Y-75779000D02*
X126528000Y-75779000D01*
X128488000Y-75779000D02*
X129162000Y-75779000D01*
X125902000Y-75739000D02*
X129114000Y-75739000D01*
X125952000Y-75699000D02*
X129064000Y-75699000D01*
X126004000Y-75659000D02*
X129012000Y-75659000D01*
X126060000Y-75619000D02*
X128956000Y-75619000D01*
X126118000Y-75579000D02*
X128898000Y-75579000D01*
X126181000Y-75539000D02*
X128835000Y-75539000D01*
X126247000Y-75499000D02*
X128769000Y-75499000D01*
X126319000Y-75459000D02*
X128697000Y-75459000D01*
X126396000Y-75419000D02*
X128620000Y-75419000D01*
X126480000Y-75379000D02*
X128536000Y-75379000D01*
X126574000Y-75339000D02*
X128442000Y-75339000D01*
X126679000Y-75299000D02*
X128337000Y-75299000D01*
X126801000Y-75259000D02*
X128215000Y-75259000D01*
X126949000Y-75219000D02*
X128067000Y-75219000D01*
X127154000Y-75179000D02*
X127862000Y-75179000D01*
X127508000Y-80940000D02*
X127508000Y-79740000D01*
X126858000Y-80340000D02*
X128158000Y-80340000D01*
X91602000Y-66324000D02*
X91602000Y-65624000D01*
X92802000Y-65624000D02*
X92802000Y-66324000D01*
X119726000Y-79152000D02*
X119726000Y-79852000D01*
X118526000Y-79852000D02*
X118526000Y-79152000D01*
X92675000Y-69881000D02*
X92675000Y-70581000D01*
X91475000Y-70581000D02*
X91475000Y-69881000D01*
X97374000Y-86772000D02*
X97374000Y-87472000D01*
X96174000Y-87472000D02*
X96174000Y-86772000D01*
X104994000Y-83724000D02*
X104994000Y-84424000D01*
X103794000Y-84424000D02*
X103794000Y-83724000D01*
X117760000Y-75219000D02*
X118460000Y-75219000D01*
X118460000Y-76419000D02*
X117760000Y-76419000D01*
X117760000Y-72171000D02*
X118460000Y-72171000D01*
X118460000Y-73371000D02*
X117760000Y-73371000D01*
X111344000Y-84867000D02*
X111344000Y-85567000D01*
X110144000Y-85567000D02*
X110144000Y-84867000D01*
X117440000Y-79787000D02*
X117440000Y-80487000D01*
X116240000Y-80487000D02*
X116240000Y-79787000D01*
X117760000Y-68996000D02*
X118460000Y-68996000D01*
X118460000Y-70196000D02*
X117760000Y-70196000D01*
X101438000Y-84867000D02*
X101438000Y-85567000D01*
X100238000Y-85567000D02*
X100238000Y-84867000D01*
X109820000Y-84867000D02*
X109820000Y-85567000D01*
X108620000Y-85567000D02*
X108620000Y-84867000D01*
X115916000Y-79787000D02*
X115916000Y-80487000D01*
X114716000Y-80487000D02*
X114716000Y-79787000D01*
X117760000Y-73695000D02*
X118460000Y-73695000D01*
X118460000Y-74895000D02*
X117760000Y-74895000D01*
X108296000Y-84867000D02*
X108296000Y-85567000D01*
X107096000Y-85567000D02*
X107096000Y-84867000D01*
X114392000Y-84867000D02*
X114392000Y-85567000D01*
X113192000Y-85567000D02*
X113192000Y-84867000D01*
X117760000Y-70520000D02*
X118460000Y-70520000D01*
X118460000Y-71720000D02*
X117760000Y-71720000D01*
X117760000Y-67472000D02*
X118460000Y-67472000D01*
X118460000Y-68672000D02*
X117760000Y-68672000D01*
X99660000Y-84867000D02*
X99660000Y-85567000D01*
X98460000Y-85567000D02*
X98460000Y-84867000D01*
X112868000Y-84867000D02*
X112868000Y-85567000D01*
X111668000Y-85567000D02*
X111668000Y-84867000D01*
X103470000Y-83724000D02*
X103470000Y-84424000D01*
X102270000Y-84424000D02*
X102270000Y-83724000D01*
X83633000Y-90611000D02*
X88833000Y-90611000D01*
X83633000Y-85471000D02*
X83633000Y-90611000D01*
X88833000Y-82871000D02*
X88833000Y-90611000D01*
X83633000Y-85471000D02*
X86233000Y-85471000D01*
X86233000Y-85471000D02*
X86233000Y-82871000D01*
X86233000Y-82871000D02*
X88833000Y-82871000D01*
X83633000Y-84201000D02*
X83633000Y-82871000D01*
X83633000Y-82871000D02*
X84963000Y-82871000D01*
X123616000Y-83320000D02*
X123616000Y-84320000D01*
X122256000Y-84320000D02*
X122256000Y-83320000D01*
X86024000Y-64948000D02*
X86024000Y-65948000D01*
X84664000Y-65948000D02*
X84664000Y-64948000D01*
X121928000Y-74250000D02*
X122928000Y-74250000D01*
X122928000Y-75610000D02*
X121928000Y-75610000D01*
X86024000Y-69985000D02*
X86024000Y-70985000D01*
X84664000Y-70985000D02*
X84664000Y-69985000D01*
X90850000Y-86622000D02*
X90850000Y-87622000D01*
X89490000Y-87622000D02*
X89490000Y-86622000D01*
X107255000Y-54440000D02*
X122615000Y-54440000D01*
X122615000Y-54440000D02*
X122615000Y-51780000D01*
X122615000Y-51780000D02*
X107255000Y-51780000D01*
X107255000Y-51780000D02*
X107255000Y-54440000D01*
X108205000Y-51780000D02*
X108205000Y-45780000D01*
X108205000Y-45780000D02*
X108965000Y-45780000D01*
X108965000Y-45780000D02*
X108965000Y-51780000D01*
X108265000Y-51780000D02*
X108265000Y-45780000D01*
X108385000Y-51780000D02*
X108385000Y-45780000D01*
X108505000Y-51780000D02*
X108505000Y-45780000D01*
X108625000Y-51780000D02*
X108625000Y-45780000D01*
X108745000Y-51780000D02*
X108745000Y-45780000D01*
X108865000Y-51780000D02*
X108865000Y-45780000D01*
X108205000Y-54837071D02*
X108205000Y-54440000D01*
X108965000Y-54837071D02*
X108965000Y-54440000D01*
X108205000Y-57310000D02*
X108205000Y-56922929D01*
X108965000Y-57310000D02*
X108965000Y-56922929D01*
X109855000Y-54440000D02*
X109855000Y-51780000D01*
X110745000Y-51780000D02*
X110745000Y-45780000D01*
X110745000Y-45780000D02*
X111505000Y-45780000D01*
X111505000Y-45780000D02*
X111505000Y-51780000D01*
X110745000Y-54837071D02*
X110745000Y-54440000D01*
X111505000Y-54837071D02*
X111505000Y-54440000D01*
X110745000Y-57377071D02*
X110745000Y-56922929D01*
X111505000Y-57377071D02*
X111505000Y-56922929D01*
X112395000Y-54440000D02*
X112395000Y-51780000D01*
X113285000Y-51780000D02*
X113285000Y-45780000D01*
X113285000Y-45780000D02*
X114045000Y-45780000D01*
X114045000Y-45780000D02*
X114045000Y-51780000D01*
X113285000Y-54837071D02*
X113285000Y-54440000D01*
X114045000Y-54837071D02*
X114045000Y-54440000D01*
X113285000Y-57377071D02*
X113285000Y-56922929D01*
X114045000Y-57377071D02*
X114045000Y-56922929D01*
X114935000Y-54440000D02*
X114935000Y-51780000D01*
X115825000Y-51780000D02*
X115825000Y-45780000D01*
X115825000Y-45780000D02*
X116585000Y-45780000D01*
X116585000Y-45780000D02*
X116585000Y-51780000D01*
X115825000Y-54837071D02*
X115825000Y-54440000D01*
X116585000Y-54837071D02*
X116585000Y-54440000D01*
X115825000Y-57377071D02*
X115825000Y-56922929D01*
X116585000Y-57377071D02*
X116585000Y-56922929D01*
X117475000Y-54440000D02*
X117475000Y-51780000D01*
X118365000Y-51780000D02*
X118365000Y-45780000D01*
X118365000Y-45780000D02*
X119125000Y-45780000D01*
X119125000Y-45780000D02*
X119125000Y-51780000D01*
X118365000Y-54837071D02*
X118365000Y-54440000D01*
X119125000Y-54837071D02*
X119125000Y-54440000D01*
X118365000Y-57377071D02*
X118365000Y-56922929D01*
X119125000Y-57377071D02*
X119125000Y-56922929D01*
X120015000Y-54440000D02*
X120015000Y-51780000D01*
X120905000Y-51780000D02*
X120905000Y-45780000D01*
X120905000Y-45780000D02*
X121665000Y-45780000D01*
X121665000Y-45780000D02*
X121665000Y-51780000D01*
X120905000Y-54837071D02*
X120905000Y-54440000D01*
X121665000Y-54837071D02*
X121665000Y-54440000D01*
X120905000Y-57377071D02*
X120905000Y-56922929D01*
X121665000Y-57377071D02*
X121665000Y-56922929D01*
X108585000Y-59690000D02*
X107315000Y-59690000D01*
X107315000Y-59690000D02*
X107315000Y-58420000D01*
X95422000Y-80018000D02*
X95422000Y-81018000D01*
X94062000Y-81018000D02*
X94062000Y-80018000D01*
X93644000Y-79002000D02*
X93644000Y-80002000D01*
X92284000Y-80002000D02*
X92284000Y-79002000D01*
X106598000Y-83574000D02*
X106598000Y-84574000D01*
X105238000Y-84574000D02*
X105238000Y-83574000D01*
X120696000Y-86720000D02*
X119196000Y-86720000D01*
X119196000Y-86720000D02*
X119196000Y-86990000D01*
X119196000Y-86990000D02*
X116366000Y-86990000D01*
X120696000Y-93620000D02*
X119196000Y-93620000D01*
X119196000Y-93620000D02*
X119196000Y-93350000D01*
X119196000Y-93350000D02*
X118096000Y-93350000D01*
X93818000Y-86518000D02*
X93818000Y-87218000D01*
X92618000Y-87218000D02*
X92618000Y-86518000D01*
X88046000Y-65374000D02*
X88046000Y-64674000D01*
X89246000Y-64674000D02*
X89246000Y-65374000D01*
X89246000Y-70008000D02*
X89246000Y-70708000D01*
X88046000Y-70708000D02*
X88046000Y-70008000D01*
X121504000Y-83724000D02*
X121504000Y-84424000D01*
X120304000Y-84424000D02*
X120304000Y-83724000D01*
X129092000Y-97342000D02*
X129092000Y-94682000D01*
X126492000Y-97342000D02*
X129092000Y-97342000D01*
X126492000Y-94682000D02*
X129092000Y-94682000D01*
X126492000Y-97342000D02*
X126492000Y-94682000D01*
X125222000Y-97342000D02*
X123892000Y-97342000D01*
X123892000Y-97342000D02*
X123892000Y-96012000D01*
X128330000Y-69028000D02*
X125670000Y-69028000D01*
X128330000Y-71628000D02*
X128330000Y-69028000D01*
X125670000Y-71628000D02*
X125670000Y-69028000D01*
X128330000Y-71628000D02*
X125670000Y-71628000D01*
X128330000Y-72898000D02*
X128330000Y-74228000D01*
X128330000Y-74228000D02*
X127000000Y-74228000D01*
D12*
X101115905Y-53792381D02*
X101115905Y-52792381D01*
X101496858Y-52792381D01*
X101592096Y-52840000D01*
X101639715Y-52887619D01*
X101687334Y-52982857D01*
X101687334Y-53125714D01*
X101639715Y-53220952D01*
X101592096Y-53268571D01*
X101496858Y-53316190D01*
X101115905Y-53316190D01*
X102544477Y-52792381D02*
X102354000Y-52792381D01*
X102258762Y-52840000D01*
X102211143Y-52887619D01*
X102115905Y-53030476D01*
X102068286Y-53220952D01*
X102068286Y-53601905D01*
X102115905Y-53697143D01*
X102163524Y-53744762D01*
X102258762Y-53792381D01*
X102449239Y-53792381D01*
X102544477Y-53744762D01*
X102592096Y-53697143D01*
X102639715Y-53601905D01*
X102639715Y-53363810D01*
X102592096Y-53268571D01*
X102544477Y-53220952D01*
X102449239Y-53173333D01*
X102258762Y-53173333D01*
X102163524Y-53220952D01*
X102115905Y-53268571D01*
X102068286Y-53363810D01*
X103672095Y-76033381D02*
X103672095Y-76842905D01*
X103719714Y-76938143D01*
X103767333Y-76985762D01*
X103862571Y-77033381D01*
X104053048Y-77033381D01*
X104148286Y-76985762D01*
X104195905Y-76938143D01*
X104243524Y-76842905D01*
X104243524Y-76033381D01*
X105148286Y-76366714D02*
X105148286Y-77033381D01*
X104910190Y-75985762D02*
X104672095Y-76700048D01*
X105291143Y-76700048D01*
X123781143Y-78874857D02*
X123828762Y-78922476D01*
X123876381Y-79065333D01*
X123876381Y-79160571D01*
X123828762Y-79303429D01*
X123733524Y-79398667D01*
X123638286Y-79446286D01*
X123447810Y-79493905D01*
X123304952Y-79493905D01*
X123114476Y-79446286D01*
X123019238Y-79398667D01*
X122924000Y-79303429D01*
X122876381Y-79160571D01*
X122876381Y-79065333D01*
X122924000Y-78922476D01*
X122971619Y-78874857D01*
X123876381Y-77922476D02*
X123876381Y-78493905D01*
X123876381Y-78208191D02*
X122876381Y-78208191D01*
X123019238Y-78303429D01*
X123114476Y-78398667D01*
X123162095Y-78493905D01*
X122876381Y-77303429D02*
X122876381Y-77208190D01*
X122924000Y-77112952D01*
X122971619Y-77065333D01*
X123066857Y-77017714D01*
X123257333Y-76970095D01*
X123495429Y-76970095D01*
X123685905Y-77017714D01*
X123781143Y-77065333D01*
X123828762Y-77112952D01*
X123876381Y-77208190D01*
X123876381Y-77303429D01*
X123828762Y-77398667D01*
X123781143Y-77446286D01*
X123685905Y-77493905D01*
X123495429Y-77541524D01*
X123257333Y-77541524D01*
X123066857Y-77493905D01*
X122971619Y-77446286D01*
X122924000Y-77398667D01*
X122876381Y-77303429D01*
X85129810Y-72664381D02*
X85129810Y-71664381D01*
X86177429Y-72569143D02*
X86129810Y-72616762D01*
X85986953Y-72664381D01*
X85891715Y-72664381D01*
X85748857Y-72616762D01*
X85653619Y-72521524D01*
X85606000Y-72426286D01*
X85558381Y-72235810D01*
X85558381Y-72092952D01*
X85606000Y-71902476D01*
X85653619Y-71807238D01*
X85748857Y-71712000D01*
X85891715Y-71664381D01*
X85986953Y-71664381D01*
X86129810Y-71712000D01*
X86177429Y-71759619D01*
X87129810Y-72664381D02*
X86558381Y-72664381D01*
X86844095Y-72664381D02*
X86844095Y-71664381D01*
X86748857Y-71807238D01*
X86653619Y-71902476D01*
X86558381Y-71950095D01*
X95591334Y-93321143D02*
X95543715Y-93368762D01*
X95400858Y-93416381D01*
X95305620Y-93416381D01*
X95162762Y-93368762D01*
X95067524Y-93273524D01*
X95019905Y-93178286D01*
X94972286Y-92987810D01*
X94972286Y-92844952D01*
X95019905Y-92654476D01*
X95067524Y-92559238D01*
X95162762Y-92464000D01*
X95305620Y-92416381D01*
X95400858Y-92416381D01*
X95543715Y-92464000D01*
X95591334Y-92511619D01*
X96543715Y-93416381D02*
X95972286Y-93416381D01*
X96258000Y-93416381D02*
X96258000Y-92416381D01*
X96162762Y-92559238D01*
X96067524Y-92654476D01*
X95972286Y-92702095D01*
X116078095Y-102703381D02*
X116078095Y-103512905D01*
X116125714Y-103608143D01*
X116173333Y-103655762D01*
X116268571Y-103703381D01*
X116459048Y-103703381D01*
X116554286Y-103655762D01*
X116601905Y-103608143D01*
X116649524Y-103512905D01*
X116649524Y-102703381D01*
X117649524Y-103703381D02*
X117078095Y-103703381D01*
X117363809Y-103703381D02*
X117363809Y-102703381D01*
X117268571Y-102846238D01*
X117173333Y-102941476D01*
X117078095Y-102989095D01*
X116927334Y-86209143D02*
X116879715Y-86256762D01*
X116736858Y-86304381D01*
X116641620Y-86304381D01*
X116498762Y-86256762D01*
X116403524Y-86161524D01*
X116355905Y-86066286D01*
X116308286Y-85875810D01*
X116308286Y-85732952D01*
X116355905Y-85542476D01*
X116403524Y-85447238D01*
X116498762Y-85352000D01*
X116641620Y-85304381D01*
X116736858Y-85304381D01*
X116879715Y-85352000D01*
X116927334Y-85399619D01*
X117498762Y-85732952D02*
X117403524Y-85685333D01*
X117355905Y-85637714D01*
X117308286Y-85542476D01*
X117308286Y-85494857D01*
X117355905Y-85399619D01*
X117403524Y-85352000D01*
X117498762Y-85304381D01*
X117689239Y-85304381D01*
X117784477Y-85352000D01*
X117832096Y-85399619D01*
X117879715Y-85494857D01*
X117879715Y-85542476D01*
X117832096Y-85637714D01*
X117784477Y-85685333D01*
X117689239Y-85732952D01*
X117498762Y-85732952D01*
X117403524Y-85780571D01*
X117355905Y-85828190D01*
X117308286Y-85923429D01*
X117308286Y-86113905D01*
X117355905Y-86209143D01*
X117403524Y-86256762D01*
X117498762Y-86304381D01*
X117689239Y-86304381D01*
X117784477Y-86256762D01*
X117832096Y-86209143D01*
X117879715Y-86113905D01*
X117879715Y-85923429D01*
X117832096Y-85828190D01*
X117784477Y-85780571D01*
X117689239Y-85732952D01*
X105751334Y-90781143D02*
X105703715Y-90828762D01*
X105560858Y-90876381D01*
X105465620Y-90876381D01*
X105322762Y-90828762D01*
X105227524Y-90733524D01*
X105179905Y-90638286D01*
X105132286Y-90447810D01*
X105132286Y-90304952D01*
X105179905Y-90114476D01*
X105227524Y-90019238D01*
X105322762Y-89924000D01*
X105465620Y-89876381D01*
X105560858Y-89876381D01*
X105703715Y-89924000D01*
X105751334Y-89971619D01*
X106608477Y-90209714D02*
X106608477Y-90876381D01*
X106370381Y-89828762D02*
X106132286Y-90543048D01*
X106751334Y-90543048D01*
X127341334Y-81637143D02*
X127293715Y-81684762D01*
X127150858Y-81732381D01*
X127055620Y-81732381D01*
X126912762Y-81684762D01*
X126817524Y-81589524D01*
X126769905Y-81494286D01*
X126722286Y-81303810D01*
X126722286Y-81160952D01*
X126769905Y-80970476D01*
X126817524Y-80875238D01*
X126912762Y-80780000D01*
X127055620Y-80732381D01*
X127150858Y-80732381D01*
X127293715Y-80780000D01*
X127341334Y-80827619D01*
X128246096Y-80732381D02*
X127769905Y-80732381D01*
X127722286Y-81208571D01*
X127769905Y-81160952D01*
X127865143Y-81113333D01*
X128103239Y-81113333D01*
X128198477Y-81160952D01*
X128246096Y-81208571D01*
X128293715Y-81303810D01*
X128293715Y-81541905D01*
X128246096Y-81637143D01*
X128198477Y-81684762D01*
X128103239Y-81732381D01*
X127865143Y-81732381D01*
X127769905Y-81684762D01*
X127722286Y-81637143D01*
X92035334Y-63857143D02*
X91987715Y-63904762D01*
X91844858Y-63952381D01*
X91749620Y-63952381D01*
X91606762Y-63904762D01*
X91511524Y-63809524D01*
X91463905Y-63714286D01*
X91416286Y-63523810D01*
X91416286Y-63380952D01*
X91463905Y-63190476D01*
X91511524Y-63095238D01*
X91606762Y-63000000D01*
X91749620Y-62952381D01*
X91844858Y-62952381D01*
X91987715Y-63000000D01*
X92035334Y-63047619D01*
X92511524Y-63952381D02*
X92702000Y-63952381D01*
X92797239Y-63904762D01*
X92844858Y-63857143D01*
X92940096Y-63714286D01*
X92987715Y-63523810D01*
X92987715Y-63142857D01*
X92940096Y-63047619D01*
X92892477Y-63000000D01*
X92797239Y-62952381D01*
X92606762Y-62952381D01*
X92511524Y-63000000D01*
X92463905Y-63047619D01*
X92416286Y-63142857D01*
X92416286Y-63380952D01*
X92463905Y-63476190D01*
X92511524Y-63523810D01*
X92606762Y-63571429D01*
X92797239Y-63571429D01*
X92892477Y-63523810D01*
X92940096Y-63476190D01*
X92987715Y-63380952D01*
X118483143Y-77573143D02*
X118435524Y-77620762D01*
X118292667Y-77668381D01*
X118197429Y-77668381D01*
X118054571Y-77620762D01*
X117959333Y-77525524D01*
X117911714Y-77430286D01*
X117864095Y-77239810D01*
X117864095Y-77096952D01*
X117911714Y-76906476D01*
X117959333Y-76811238D01*
X118054571Y-76716000D01*
X118197429Y-76668381D01*
X118292667Y-76668381D01*
X118435524Y-76716000D01*
X118483143Y-76763619D01*
X119435524Y-77668381D02*
X118864095Y-77668381D01*
X119149809Y-77668381D02*
X119149809Y-76668381D01*
X119054571Y-76811238D01*
X118959333Y-76906476D01*
X118864095Y-76954095D01*
X119768857Y-76668381D02*
X120387905Y-76668381D01*
X120054571Y-77049333D01*
X120197429Y-77049333D01*
X120292667Y-77096952D01*
X120340286Y-77144571D01*
X120387905Y-77239810D01*
X120387905Y-77477905D01*
X120340286Y-77573143D01*
X120292667Y-77620762D01*
X120197429Y-77668381D01*
X119911714Y-77668381D01*
X119816476Y-77620762D01*
X119768857Y-77573143D01*
X93591143Y-70715143D02*
X93543524Y-70762762D01*
X93400667Y-70810381D01*
X93305429Y-70810381D01*
X93162571Y-70762762D01*
X93067333Y-70667524D01*
X93019714Y-70572286D01*
X92972095Y-70381810D01*
X92972095Y-70238952D01*
X93019714Y-70048476D01*
X93067333Y-69953238D01*
X93162571Y-69858000D01*
X93305429Y-69810381D01*
X93400667Y-69810381D01*
X93543524Y-69858000D01*
X93591143Y-69905619D01*
X94543524Y-70810381D02*
X93972095Y-70810381D01*
X94257809Y-70810381D02*
X94257809Y-69810381D01*
X94162571Y-69953238D01*
X94067333Y-70048476D01*
X93972095Y-70096095D01*
X95400667Y-70143714D02*
X95400667Y-70810381D01*
X95162571Y-69762762D02*
X94924476Y-70477048D01*
X95543524Y-70477048D01*
X96004143Y-84939143D02*
X95956524Y-84986762D01*
X95813667Y-85034381D01*
X95718429Y-85034381D01*
X95575571Y-84986762D01*
X95480333Y-84891524D01*
X95432714Y-84796286D01*
X95385095Y-84605810D01*
X95385095Y-84462952D01*
X95432714Y-84272476D01*
X95480333Y-84177238D01*
X95575571Y-84082000D01*
X95718429Y-84034381D01*
X95813667Y-84034381D01*
X95956524Y-84082000D01*
X96004143Y-84129619D01*
X96956524Y-85034381D02*
X96385095Y-85034381D01*
X96670809Y-85034381D02*
X96670809Y-84034381D01*
X96575571Y-84177238D01*
X96480333Y-84272476D01*
X96385095Y-84320095D01*
X97813667Y-84034381D02*
X97623190Y-84034381D01*
X97527952Y-84082000D01*
X97480333Y-84129619D01*
X97385095Y-84272476D01*
X97337476Y-84462952D01*
X97337476Y-84843905D01*
X97385095Y-84939143D01*
X97432714Y-84986762D01*
X97527952Y-85034381D01*
X97718429Y-85034381D01*
X97813667Y-84986762D01*
X97861286Y-84939143D01*
X97908905Y-84843905D01*
X97908905Y-84605810D01*
X97861286Y-84510571D01*
X97813667Y-84462952D01*
X97718429Y-84415333D01*
X97527952Y-84415333D01*
X97432714Y-84462952D01*
X97385095Y-84510571D01*
X97337476Y-84605810D01*
X104751143Y-88018857D02*
X104798762Y-88066476D01*
X104846381Y-88209333D01*
X104846381Y-88304571D01*
X104798762Y-88447429D01*
X104703524Y-88542667D01*
X104608286Y-88590286D01*
X104417810Y-88637905D01*
X104274952Y-88637905D01*
X104084476Y-88590286D01*
X103989238Y-88542667D01*
X103894000Y-88447429D01*
X103846381Y-88304571D01*
X103846381Y-88209333D01*
X103894000Y-88066476D01*
X103941619Y-88018857D01*
X104846381Y-87066476D02*
X104846381Y-87637905D01*
X104846381Y-87352191D02*
X103846381Y-87352191D01*
X103989238Y-87447429D01*
X104084476Y-87542667D01*
X104132095Y-87637905D01*
X103846381Y-86733143D02*
X103846381Y-86066476D01*
X104846381Y-86495048D01*
X114165143Y-76176143D02*
X114117524Y-76223762D01*
X113974667Y-76271381D01*
X113879429Y-76271381D01*
X113736571Y-76223762D01*
X113641333Y-76128524D01*
X113593714Y-76033286D01*
X113546095Y-75842810D01*
X113546095Y-75699952D01*
X113593714Y-75509476D01*
X113641333Y-75414238D01*
X113736571Y-75319000D01*
X113879429Y-75271381D01*
X113974667Y-75271381D01*
X114117524Y-75319000D01*
X114165143Y-75366619D01*
X115117524Y-76271381D02*
X114546095Y-76271381D01*
X114831809Y-76271381D02*
X114831809Y-75271381D01*
X114736571Y-75414238D01*
X114641333Y-75509476D01*
X114546095Y-75557095D01*
X115688952Y-75699952D02*
X115593714Y-75652333D01*
X115546095Y-75604714D01*
X115498476Y-75509476D01*
X115498476Y-75461857D01*
X115546095Y-75366619D01*
X115593714Y-75319000D01*
X115688952Y-75271381D01*
X115879429Y-75271381D01*
X115974667Y-75319000D01*
X116022286Y-75366619D01*
X116069905Y-75461857D01*
X116069905Y-75509476D01*
X116022286Y-75604714D01*
X115974667Y-75652333D01*
X115879429Y-75699952D01*
X115688952Y-75699952D01*
X115593714Y-75747571D01*
X115546095Y-75795190D01*
X115498476Y-75890429D01*
X115498476Y-76080905D01*
X115546095Y-76176143D01*
X115593714Y-76223762D01*
X115688952Y-76271381D01*
X115879429Y-76271381D01*
X115974667Y-76223762D01*
X116022286Y-76176143D01*
X116069905Y-76080905D01*
X116069905Y-75890429D01*
X116022286Y-75795190D01*
X115974667Y-75747571D01*
X115879429Y-75699952D01*
X120769143Y-73128143D02*
X120721524Y-73175762D01*
X120578667Y-73223381D01*
X120483429Y-73223381D01*
X120340571Y-73175762D01*
X120245333Y-73080524D01*
X120197714Y-72985286D01*
X120150095Y-72794810D01*
X120150095Y-72651952D01*
X120197714Y-72461476D01*
X120245333Y-72366238D01*
X120340571Y-72271000D01*
X120483429Y-72223381D01*
X120578667Y-72223381D01*
X120721524Y-72271000D01*
X120769143Y-72318619D01*
X121721524Y-73223381D02*
X121150095Y-73223381D01*
X121435809Y-73223381D02*
X121435809Y-72223381D01*
X121340571Y-72366238D01*
X121245333Y-72461476D01*
X121150095Y-72509095D01*
X122197714Y-73223381D02*
X122388190Y-73223381D01*
X122483429Y-73175762D01*
X122531048Y-73128143D01*
X122626286Y-72985286D01*
X122673905Y-72794810D01*
X122673905Y-72413857D01*
X122626286Y-72318619D01*
X122578667Y-72271000D01*
X122483429Y-72223381D01*
X122292952Y-72223381D01*
X122197714Y-72271000D01*
X122150095Y-72318619D01*
X122102476Y-72413857D01*
X122102476Y-72651952D01*
X122150095Y-72747190D01*
X122197714Y-72794810D01*
X122292952Y-72842429D01*
X122483429Y-72842429D01*
X122578667Y-72794810D01*
X122626286Y-72747190D01*
X122673905Y-72651952D01*
X111101143Y-82684857D02*
X111148762Y-82732476D01*
X111196381Y-82875333D01*
X111196381Y-82970571D01*
X111148762Y-83113429D01*
X111053524Y-83208667D01*
X110958286Y-83256286D01*
X110767810Y-83303905D01*
X110624952Y-83303905D01*
X110434476Y-83256286D01*
X110339238Y-83208667D01*
X110244000Y-83113429D01*
X110196381Y-82970571D01*
X110196381Y-82875333D01*
X110244000Y-82732476D01*
X110291619Y-82684857D01*
X110291619Y-82303905D02*
X110244000Y-82256286D01*
X110196381Y-82161048D01*
X110196381Y-81922952D01*
X110244000Y-81827714D01*
X110291619Y-81780095D01*
X110386857Y-81732476D01*
X110482095Y-81732476D01*
X110624952Y-81780095D01*
X111196381Y-82351524D01*
X111196381Y-81732476D01*
X110196381Y-81113429D02*
X110196381Y-81018190D01*
X110244000Y-80922952D01*
X110291619Y-80875333D01*
X110386857Y-80827714D01*
X110577333Y-80780095D01*
X110815429Y-80780095D01*
X111005905Y-80827714D01*
X111101143Y-80875333D01*
X111148762Y-80922952D01*
X111196381Y-81018190D01*
X111196381Y-81113429D01*
X111148762Y-81208667D01*
X111101143Y-81256286D01*
X111005905Y-81303905D01*
X110815429Y-81351524D01*
X110577333Y-81351524D01*
X110386857Y-81303905D01*
X110291619Y-81256286D01*
X110244000Y-81208667D01*
X110196381Y-81113429D01*
X117197143Y-84081857D02*
X117244762Y-84129476D01*
X117292381Y-84272333D01*
X117292381Y-84367571D01*
X117244762Y-84510429D01*
X117149524Y-84605667D01*
X117054286Y-84653286D01*
X116863810Y-84700905D01*
X116720952Y-84700905D01*
X116530476Y-84653286D01*
X116435238Y-84605667D01*
X116340000Y-84510429D01*
X116292381Y-84367571D01*
X116292381Y-84272333D01*
X116340000Y-84129476D01*
X116387619Y-84081857D01*
X116387619Y-83700905D02*
X116340000Y-83653286D01*
X116292381Y-83558048D01*
X116292381Y-83319952D01*
X116340000Y-83224714D01*
X116387619Y-83177095D01*
X116482857Y-83129476D01*
X116578095Y-83129476D01*
X116720952Y-83177095D01*
X117292381Y-83748524D01*
X117292381Y-83129476D01*
X117292381Y-82177095D02*
X117292381Y-82748524D01*
X117292381Y-82462810D02*
X116292381Y-82462810D01*
X116435238Y-82558048D01*
X116530476Y-82653286D01*
X116578095Y-82748524D01*
X120769143Y-69953143D02*
X120721524Y-70000762D01*
X120578667Y-70048381D01*
X120483429Y-70048381D01*
X120340571Y-70000762D01*
X120245333Y-69905524D01*
X120197714Y-69810286D01*
X120150095Y-69619810D01*
X120150095Y-69476952D01*
X120197714Y-69286476D01*
X120245333Y-69191238D01*
X120340571Y-69096000D01*
X120483429Y-69048381D01*
X120578667Y-69048381D01*
X120721524Y-69096000D01*
X120769143Y-69143619D01*
X121150095Y-69143619D02*
X121197714Y-69096000D01*
X121292952Y-69048381D01*
X121531048Y-69048381D01*
X121626286Y-69096000D01*
X121673905Y-69143619D01*
X121721524Y-69238857D01*
X121721524Y-69334095D01*
X121673905Y-69476952D01*
X121102476Y-70048381D01*
X121721524Y-70048381D01*
X122102476Y-69143619D02*
X122150095Y-69096000D01*
X122245333Y-69048381D01*
X122483429Y-69048381D01*
X122578667Y-69096000D01*
X122626286Y-69143619D01*
X122673905Y-69238857D01*
X122673905Y-69334095D01*
X122626286Y-69476952D01*
X122054857Y-70048381D01*
X122673905Y-70048381D01*
X101195143Y-89161857D02*
X101242762Y-89209476D01*
X101290381Y-89352333D01*
X101290381Y-89447571D01*
X101242762Y-89590429D01*
X101147524Y-89685667D01*
X101052286Y-89733286D01*
X100861810Y-89780905D01*
X100718952Y-89780905D01*
X100528476Y-89733286D01*
X100433238Y-89685667D01*
X100338000Y-89590429D01*
X100290381Y-89447571D01*
X100290381Y-89352333D01*
X100338000Y-89209476D01*
X100385619Y-89161857D01*
X100385619Y-88780905D02*
X100338000Y-88733286D01*
X100290381Y-88638048D01*
X100290381Y-88399952D01*
X100338000Y-88304714D01*
X100385619Y-88257095D01*
X100480857Y-88209476D01*
X100576095Y-88209476D01*
X100718952Y-88257095D01*
X101290381Y-88828524D01*
X101290381Y-88209476D01*
X100290381Y-87876143D02*
X100290381Y-87257095D01*
X100671333Y-87590429D01*
X100671333Y-87447571D01*
X100718952Y-87352333D01*
X100766571Y-87304714D01*
X100861810Y-87257095D01*
X101099905Y-87257095D01*
X101195143Y-87304714D01*
X101242762Y-87352333D01*
X101290381Y-87447571D01*
X101290381Y-87733286D01*
X101242762Y-87828524D01*
X101195143Y-87876143D01*
X109577143Y-82684857D02*
X109624762Y-82732476D01*
X109672381Y-82875333D01*
X109672381Y-82970571D01*
X109624762Y-83113429D01*
X109529524Y-83208667D01*
X109434286Y-83256286D01*
X109243810Y-83303905D01*
X109100952Y-83303905D01*
X108910476Y-83256286D01*
X108815238Y-83208667D01*
X108720000Y-83113429D01*
X108672381Y-82970571D01*
X108672381Y-82875333D01*
X108720000Y-82732476D01*
X108767619Y-82684857D01*
X108767619Y-82303905D02*
X108720000Y-82256286D01*
X108672381Y-82161048D01*
X108672381Y-81922952D01*
X108720000Y-81827714D01*
X108767619Y-81780095D01*
X108862857Y-81732476D01*
X108958095Y-81732476D01*
X109100952Y-81780095D01*
X109672381Y-82351524D01*
X109672381Y-81732476D01*
X108672381Y-80827714D02*
X108672381Y-81303905D01*
X109148571Y-81351524D01*
X109100952Y-81303905D01*
X109053333Y-81208667D01*
X109053333Y-80970571D01*
X109100952Y-80875333D01*
X109148571Y-80827714D01*
X109243810Y-80780095D01*
X109481905Y-80780095D01*
X109577143Y-80827714D01*
X109624762Y-80875333D01*
X109672381Y-80970571D01*
X109672381Y-81208667D01*
X109624762Y-81303905D01*
X109577143Y-81351524D01*
X115673143Y-84081857D02*
X115720762Y-84129476D01*
X115768381Y-84272333D01*
X115768381Y-84367571D01*
X115720762Y-84510429D01*
X115625524Y-84605667D01*
X115530286Y-84653286D01*
X115339810Y-84700905D01*
X115196952Y-84700905D01*
X115006476Y-84653286D01*
X114911238Y-84605667D01*
X114816000Y-84510429D01*
X114768381Y-84367571D01*
X114768381Y-84272333D01*
X114816000Y-84129476D01*
X114863619Y-84081857D01*
X114863619Y-83700905D02*
X114816000Y-83653286D01*
X114768381Y-83558048D01*
X114768381Y-83319952D01*
X114816000Y-83224714D01*
X114863619Y-83177095D01*
X114958857Y-83129476D01*
X115054095Y-83129476D01*
X115196952Y-83177095D01*
X115768381Y-83748524D01*
X115768381Y-83129476D01*
X114768381Y-82272333D02*
X114768381Y-82462810D01*
X114816000Y-82558048D01*
X114863619Y-82605667D01*
X115006476Y-82700905D01*
X115196952Y-82748524D01*
X115577905Y-82748524D01*
X115673143Y-82700905D01*
X115720762Y-82653286D01*
X115768381Y-82558048D01*
X115768381Y-82367571D01*
X115720762Y-82272333D01*
X115673143Y-82224714D01*
X115577905Y-82177095D01*
X115339810Y-82177095D01*
X115244571Y-82224714D01*
X115196952Y-82272333D01*
X115149333Y-82367571D01*
X115149333Y-82558048D01*
X115196952Y-82653286D01*
X115244571Y-82700905D01*
X115339810Y-82748524D01*
X114165143Y-74779143D02*
X114117524Y-74826762D01*
X113974667Y-74874381D01*
X113879429Y-74874381D01*
X113736571Y-74826762D01*
X113641333Y-74731524D01*
X113593714Y-74636286D01*
X113546095Y-74445810D01*
X113546095Y-74302952D01*
X113593714Y-74112476D01*
X113641333Y-74017238D01*
X113736571Y-73922000D01*
X113879429Y-73874381D01*
X113974667Y-73874381D01*
X114117524Y-73922000D01*
X114165143Y-73969619D01*
X114546095Y-73969619D02*
X114593714Y-73922000D01*
X114688952Y-73874381D01*
X114927048Y-73874381D01*
X115022286Y-73922000D01*
X115069905Y-73969619D01*
X115117524Y-74064857D01*
X115117524Y-74160095D01*
X115069905Y-74302952D01*
X114498476Y-74874381D01*
X115117524Y-74874381D01*
X115450857Y-73874381D02*
X116117524Y-73874381D01*
X115688952Y-74874381D01*
X108053143Y-82684857D02*
X108100762Y-82732476D01*
X108148381Y-82875333D01*
X108148381Y-82970571D01*
X108100762Y-83113429D01*
X108005524Y-83208667D01*
X107910286Y-83256286D01*
X107719810Y-83303905D01*
X107576952Y-83303905D01*
X107386476Y-83256286D01*
X107291238Y-83208667D01*
X107196000Y-83113429D01*
X107148381Y-82970571D01*
X107148381Y-82875333D01*
X107196000Y-82732476D01*
X107243619Y-82684857D01*
X107243619Y-82303905D02*
X107196000Y-82256286D01*
X107148381Y-82161048D01*
X107148381Y-81922952D01*
X107196000Y-81827714D01*
X107243619Y-81780095D01*
X107338857Y-81732476D01*
X107434095Y-81732476D01*
X107576952Y-81780095D01*
X108148381Y-82351524D01*
X108148381Y-81732476D01*
X107576952Y-81161048D02*
X107529333Y-81256286D01*
X107481714Y-81303905D01*
X107386476Y-81351524D01*
X107338857Y-81351524D01*
X107243619Y-81303905D01*
X107196000Y-81256286D01*
X107148381Y-81161048D01*
X107148381Y-80970571D01*
X107196000Y-80875333D01*
X107243619Y-80827714D01*
X107338857Y-80780095D01*
X107386476Y-80780095D01*
X107481714Y-80827714D01*
X107529333Y-80875333D01*
X107576952Y-80970571D01*
X107576952Y-81161048D01*
X107624571Y-81256286D01*
X107672190Y-81303905D01*
X107767429Y-81351524D01*
X107957905Y-81351524D01*
X108053143Y-81303905D01*
X108100762Y-81256286D01*
X108148381Y-81161048D01*
X108148381Y-80970571D01*
X108100762Y-80875333D01*
X108053143Y-80827714D01*
X107957905Y-80780095D01*
X107767429Y-80780095D01*
X107672190Y-80827714D01*
X107624571Y-80875333D01*
X107576952Y-80970571D01*
X114149143Y-82684857D02*
X114196762Y-82732476D01*
X114244381Y-82875333D01*
X114244381Y-82970571D01*
X114196762Y-83113429D01*
X114101524Y-83208667D01*
X114006286Y-83256286D01*
X113815810Y-83303905D01*
X113672952Y-83303905D01*
X113482476Y-83256286D01*
X113387238Y-83208667D01*
X113292000Y-83113429D01*
X113244381Y-82970571D01*
X113244381Y-82875333D01*
X113292000Y-82732476D01*
X113339619Y-82684857D01*
X113339619Y-82303905D02*
X113292000Y-82256286D01*
X113244381Y-82161048D01*
X113244381Y-81922952D01*
X113292000Y-81827714D01*
X113339619Y-81780095D01*
X113434857Y-81732476D01*
X113530095Y-81732476D01*
X113672952Y-81780095D01*
X114244381Y-82351524D01*
X114244381Y-81732476D01*
X114244381Y-81256286D02*
X114244381Y-81065810D01*
X114196762Y-80970571D01*
X114149143Y-80922952D01*
X114006286Y-80827714D01*
X113815810Y-80780095D01*
X113434857Y-80780095D01*
X113339619Y-80827714D01*
X113292000Y-80875333D01*
X113244381Y-80970571D01*
X113244381Y-81161048D01*
X113292000Y-81256286D01*
X113339619Y-81303905D01*
X113434857Y-81351524D01*
X113672952Y-81351524D01*
X113768190Y-81303905D01*
X113815810Y-81256286D01*
X113863429Y-81161048D01*
X113863429Y-80970571D01*
X113815810Y-80875333D01*
X113768190Y-80827714D01*
X113672952Y-80780095D01*
X120769143Y-71477143D02*
X120721524Y-71524762D01*
X120578667Y-71572381D01*
X120483429Y-71572381D01*
X120340571Y-71524762D01*
X120245333Y-71429524D01*
X120197714Y-71334286D01*
X120150095Y-71143810D01*
X120150095Y-71000952D01*
X120197714Y-70810476D01*
X120245333Y-70715238D01*
X120340571Y-70620000D01*
X120483429Y-70572381D01*
X120578667Y-70572381D01*
X120721524Y-70620000D01*
X120769143Y-70667619D01*
X121102476Y-70572381D02*
X121721524Y-70572381D01*
X121388190Y-70953333D01*
X121531048Y-70953333D01*
X121626286Y-71000952D01*
X121673905Y-71048571D01*
X121721524Y-71143810D01*
X121721524Y-71381905D01*
X121673905Y-71477143D01*
X121626286Y-71524762D01*
X121531048Y-71572381D01*
X121245333Y-71572381D01*
X121150095Y-71524762D01*
X121102476Y-71477143D01*
X122340571Y-70572381D02*
X122435810Y-70572381D01*
X122531048Y-70620000D01*
X122578667Y-70667619D01*
X122626286Y-70762857D01*
X122673905Y-70953333D01*
X122673905Y-71191429D01*
X122626286Y-71381905D01*
X122578667Y-71477143D01*
X122531048Y-71524762D01*
X122435810Y-71572381D01*
X122340571Y-71572381D01*
X122245333Y-71524762D01*
X122197714Y-71477143D01*
X122150095Y-71381905D01*
X122102476Y-71191429D01*
X122102476Y-70953333D01*
X122150095Y-70762857D01*
X122197714Y-70667619D01*
X122245333Y-70620000D01*
X122340571Y-70572381D01*
X120769143Y-68429143D02*
X120721524Y-68476762D01*
X120578667Y-68524381D01*
X120483429Y-68524381D01*
X120340571Y-68476762D01*
X120245333Y-68381524D01*
X120197714Y-68286286D01*
X120150095Y-68095810D01*
X120150095Y-67952952D01*
X120197714Y-67762476D01*
X120245333Y-67667238D01*
X120340571Y-67572000D01*
X120483429Y-67524381D01*
X120578667Y-67524381D01*
X120721524Y-67572000D01*
X120769143Y-67619619D01*
X121102476Y-67524381D02*
X121721524Y-67524381D01*
X121388190Y-67905333D01*
X121531048Y-67905333D01*
X121626286Y-67952952D01*
X121673905Y-68000571D01*
X121721524Y-68095810D01*
X121721524Y-68333905D01*
X121673905Y-68429143D01*
X121626286Y-68476762D01*
X121531048Y-68524381D01*
X121245333Y-68524381D01*
X121150095Y-68476762D01*
X121102476Y-68429143D01*
X122673905Y-68524381D02*
X122102476Y-68524381D01*
X122388190Y-68524381D02*
X122388190Y-67524381D01*
X122292952Y-67667238D01*
X122197714Y-67762476D01*
X122102476Y-67810095D01*
X99417143Y-89161857D02*
X99464762Y-89209476D01*
X99512381Y-89352333D01*
X99512381Y-89447571D01*
X99464762Y-89590429D01*
X99369524Y-89685667D01*
X99274286Y-89733286D01*
X99083810Y-89780905D01*
X98940952Y-89780905D01*
X98750476Y-89733286D01*
X98655238Y-89685667D01*
X98560000Y-89590429D01*
X98512381Y-89447571D01*
X98512381Y-89352333D01*
X98560000Y-89209476D01*
X98607619Y-89161857D01*
X98512381Y-88828524D02*
X98512381Y-88209476D01*
X98893333Y-88542810D01*
X98893333Y-88399952D01*
X98940952Y-88304714D01*
X98988571Y-88257095D01*
X99083810Y-88209476D01*
X99321905Y-88209476D01*
X99417143Y-88257095D01*
X99464762Y-88304714D01*
X99512381Y-88399952D01*
X99512381Y-88685667D01*
X99464762Y-88780905D01*
X99417143Y-88828524D01*
X98607619Y-87828524D02*
X98560000Y-87780905D01*
X98512381Y-87685667D01*
X98512381Y-87447571D01*
X98560000Y-87352333D01*
X98607619Y-87304714D01*
X98702857Y-87257095D01*
X98798095Y-87257095D01*
X98940952Y-87304714D01*
X99512381Y-87876143D01*
X99512381Y-87257095D01*
X112625143Y-82684857D02*
X112672762Y-82732476D01*
X112720381Y-82875333D01*
X112720381Y-82970571D01*
X112672762Y-83113429D01*
X112577524Y-83208667D01*
X112482286Y-83256286D01*
X112291810Y-83303905D01*
X112148952Y-83303905D01*
X111958476Y-83256286D01*
X111863238Y-83208667D01*
X111768000Y-83113429D01*
X111720381Y-82970571D01*
X111720381Y-82875333D01*
X111768000Y-82732476D01*
X111815619Y-82684857D01*
X111720381Y-82351524D02*
X111720381Y-81732476D01*
X112101333Y-82065810D01*
X112101333Y-81922952D01*
X112148952Y-81827714D01*
X112196571Y-81780095D01*
X112291810Y-81732476D01*
X112529905Y-81732476D01*
X112625143Y-81780095D01*
X112672762Y-81827714D01*
X112720381Y-81922952D01*
X112720381Y-82208667D01*
X112672762Y-82303905D01*
X112625143Y-82351524D01*
X112053714Y-80875333D02*
X112720381Y-80875333D01*
X111672762Y-81113429D02*
X112387048Y-81351524D01*
X112387048Y-80732476D01*
X103227143Y-88018857D02*
X103274762Y-88066476D01*
X103322381Y-88209333D01*
X103322381Y-88304571D01*
X103274762Y-88447429D01*
X103179524Y-88542667D01*
X103084286Y-88590286D01*
X102893810Y-88637905D01*
X102750952Y-88637905D01*
X102560476Y-88590286D01*
X102465238Y-88542667D01*
X102370000Y-88447429D01*
X102322381Y-88304571D01*
X102322381Y-88209333D01*
X102370000Y-88066476D01*
X102417619Y-88018857D01*
X102322381Y-87685524D02*
X102322381Y-87066476D01*
X102703333Y-87399810D01*
X102703333Y-87256952D01*
X102750952Y-87161714D01*
X102798571Y-87114095D01*
X102893810Y-87066476D01*
X103131905Y-87066476D01*
X103227143Y-87114095D01*
X103274762Y-87161714D01*
X103322381Y-87256952D01*
X103322381Y-87542667D01*
X103274762Y-87637905D01*
X103227143Y-87685524D01*
X102322381Y-86161714D02*
X102322381Y-86637905D01*
X102798571Y-86685524D01*
X102750952Y-86637905D01*
X102703333Y-86542667D01*
X102703333Y-86304571D01*
X102750952Y-86209333D01*
X102798571Y-86161714D01*
X102893810Y-86114095D01*
X103131905Y-86114095D01*
X103227143Y-86161714D01*
X103274762Y-86209333D01*
X103322381Y-86304571D01*
X103322381Y-86542667D01*
X103274762Y-86637905D01*
X103227143Y-86685524D01*
X85145715Y-92559143D02*
X85098096Y-92606762D01*
X84955239Y-92654381D01*
X84860001Y-92654381D01*
X84717143Y-92606762D01*
X84621905Y-92511524D01*
X84574286Y-92416286D01*
X84526667Y-92225810D01*
X84526667Y-92082952D01*
X84574286Y-91892476D01*
X84621905Y-91797238D01*
X84717143Y-91702000D01*
X84860001Y-91654381D01*
X84955239Y-91654381D01*
X85098096Y-91702000D01*
X85145715Y-91749619D01*
X85764762Y-91654381D02*
X85955239Y-91654381D01*
X86050477Y-91702000D01*
X86145715Y-91797238D01*
X86193334Y-91987714D01*
X86193334Y-92321048D01*
X86145715Y-92511524D01*
X86050477Y-92606762D01*
X85955239Y-92654381D01*
X85764762Y-92654381D01*
X85669524Y-92606762D01*
X85574286Y-92511524D01*
X85526667Y-92321048D01*
X85526667Y-91987714D01*
X85574286Y-91797238D01*
X85669524Y-91702000D01*
X85764762Y-91654381D01*
X86621905Y-92654381D02*
X86621905Y-91654381D01*
X87193334Y-92654381D01*
X87193334Y-91654381D01*
X88193334Y-92654381D02*
X87621905Y-92654381D01*
X87907619Y-92654381D02*
X87907619Y-91654381D01*
X87812381Y-91797238D01*
X87717143Y-91892476D01*
X87621905Y-91940095D01*
X124547334Y-83891381D02*
X124071143Y-83891381D01*
X124071143Y-82891381D01*
X124833048Y-82986619D02*
X124880667Y-82939000D01*
X124975905Y-82891381D01*
X125214001Y-82891381D01*
X125309239Y-82939000D01*
X125356858Y-82986619D01*
X125404477Y-83081857D01*
X125404477Y-83177095D01*
X125356858Y-83319952D01*
X124785429Y-83891381D01*
X125404477Y-83891381D01*
X83145334Y-64968381D02*
X82669143Y-64968381D01*
X82669143Y-63968381D01*
X83383429Y-63968381D02*
X84002477Y-63968381D01*
X83669143Y-64349333D01*
X83812001Y-64349333D01*
X83907239Y-64396952D01*
X83954858Y-64444571D01*
X84002477Y-64539810D01*
X84002477Y-64777905D01*
X83954858Y-64873143D01*
X83907239Y-64920762D01*
X83812001Y-64968381D01*
X83526286Y-64968381D01*
X83431048Y-64920762D01*
X83383429Y-64873143D01*
X124039334Y-73858381D02*
X123563143Y-73858381D01*
X123563143Y-72858381D01*
X124801239Y-73191714D02*
X124801239Y-73858381D01*
X124563143Y-72810762D02*
X124325048Y-73525048D01*
X124944096Y-73525048D01*
X83399334Y-69794381D02*
X82923143Y-69794381D01*
X82923143Y-68794381D01*
X84208858Y-68794381D02*
X83732667Y-68794381D01*
X83685048Y-69270571D01*
X83732667Y-69222952D01*
X83827905Y-69175333D01*
X84066001Y-69175333D01*
X84161239Y-69222952D01*
X84208858Y-69270571D01*
X84256477Y-69365810D01*
X84256477Y-69603905D01*
X84208858Y-69699143D01*
X84161239Y-69746762D01*
X84066001Y-69794381D01*
X83827905Y-69794381D01*
X83732667Y-69746762D01*
X83685048Y-69699143D01*
X90003334Y-90622381D02*
X89527143Y-90622381D01*
X89527143Y-89622381D01*
X90765239Y-89622381D02*
X90574762Y-89622381D01*
X90479524Y-89670000D01*
X90431905Y-89717619D01*
X90336667Y-89860476D01*
X90289048Y-90050952D01*
X90289048Y-90431905D01*
X90336667Y-90527143D01*
X90384286Y-90574762D01*
X90479524Y-90622381D01*
X90670001Y-90622381D01*
X90765239Y-90574762D01*
X90812858Y-90527143D01*
X90860477Y-90431905D01*
X90860477Y-90193810D01*
X90812858Y-90098571D01*
X90765239Y-90050952D01*
X90670001Y-90003333D01*
X90479524Y-90003333D01*
X90384286Y-90050952D01*
X90336667Y-90098571D01*
X90289048Y-90193810D01*
X105433905Y-53792381D02*
X105433905Y-52792381D01*
X105814858Y-52792381D01*
X105910096Y-52840000D01*
X105957715Y-52887619D01*
X106005334Y-52982857D01*
X106005334Y-53125714D01*
X105957715Y-53220952D01*
X105910096Y-53268571D01*
X105814858Y-53316190D01*
X105433905Y-53316190D01*
X106338667Y-52792381D02*
X107005334Y-52792381D01*
X106576762Y-53792381D01*
X95194381Y-77636666D02*
X94718190Y-77970000D01*
X95194381Y-78208095D02*
X94194381Y-78208095D01*
X94194381Y-77827142D01*
X94242000Y-77731904D01*
X94289619Y-77684285D01*
X94384857Y-77636666D01*
X94527714Y-77636666D01*
X94622952Y-77684285D01*
X94670571Y-77731904D01*
X94718190Y-77827142D01*
X94718190Y-78208095D01*
X94194381Y-76779523D02*
X94194381Y-76970000D01*
X94242000Y-77065238D01*
X94289619Y-77112857D01*
X94432476Y-77208095D01*
X94622952Y-77255714D01*
X95003905Y-77255714D01*
X95099143Y-77208095D01*
X95146762Y-77160476D01*
X95194381Y-77065238D01*
X95194381Y-76874761D01*
X95146762Y-76779523D01*
X95099143Y-76731904D01*
X95003905Y-76684285D01*
X94765810Y-76684285D01*
X94670571Y-76731904D01*
X94622952Y-76779523D01*
X94575333Y-76874761D01*
X94575333Y-77065238D01*
X94622952Y-77160476D01*
X94670571Y-77208095D01*
X94765810Y-77255714D01*
X93416381Y-76450666D02*
X92940190Y-76784000D01*
X93416381Y-77022095D02*
X92416381Y-77022095D01*
X92416381Y-76641142D01*
X92464000Y-76545904D01*
X92511619Y-76498285D01*
X92606857Y-76450666D01*
X92749714Y-76450666D01*
X92844952Y-76498285D01*
X92892571Y-76545904D01*
X92940190Y-76641142D01*
X92940190Y-77022095D01*
X92416381Y-76117333D02*
X92416381Y-75450666D01*
X93416381Y-75879238D01*
X106370381Y-88018857D02*
X105894190Y-88352191D01*
X106370381Y-88590286D02*
X105370381Y-88590286D01*
X105370381Y-88209333D01*
X105418000Y-88114095D01*
X105465619Y-88066476D01*
X105560857Y-88018857D01*
X105703714Y-88018857D01*
X105798952Y-88066476D01*
X105846571Y-88114095D01*
X105894190Y-88209333D01*
X105894190Y-88590286D01*
X106370381Y-87066476D02*
X106370381Y-87637905D01*
X106370381Y-87352191D02*
X105370381Y-87352191D01*
X105513238Y-87447429D01*
X105608476Y-87542667D01*
X105656095Y-87637905D01*
X105703714Y-86209333D02*
X106370381Y-86209333D01*
X105322762Y-86447429D02*
X106037048Y-86685524D01*
X106037048Y-86066476D01*
X121666095Y-93940381D02*
X121666095Y-94749905D01*
X121713714Y-94845143D01*
X121761333Y-94892762D01*
X121856571Y-94940381D01*
X122047048Y-94940381D01*
X122142286Y-94892762D01*
X122189905Y-94845143D01*
X122237524Y-94749905D01*
X122237524Y-93940381D01*
X122666095Y-94035619D02*
X122713714Y-93988000D01*
X122808952Y-93940381D01*
X123047048Y-93940381D01*
X123142286Y-93988000D01*
X123189905Y-94035619D01*
X123237524Y-94130857D01*
X123237524Y-94226095D01*
X123189905Y-94368952D01*
X122618476Y-94940381D01*
X123237524Y-94940381D01*
X94825143Y-87510857D02*
X94872762Y-87558476D01*
X94920381Y-87701333D01*
X94920381Y-87796571D01*
X94872762Y-87939429D01*
X94777524Y-88034667D01*
X94682286Y-88082286D01*
X94491810Y-88129905D01*
X94348952Y-88129905D01*
X94158476Y-88082286D01*
X94063238Y-88034667D01*
X93968000Y-87939429D01*
X93920381Y-87796571D01*
X93920381Y-87701333D01*
X93968000Y-87558476D01*
X94015619Y-87510857D01*
X94920381Y-86558476D02*
X94920381Y-87129905D01*
X94920381Y-86844191D02*
X93920381Y-86844191D01*
X94063238Y-86939429D01*
X94158476Y-87034667D01*
X94206095Y-87129905D01*
X93920381Y-85653714D02*
X93920381Y-86129905D01*
X94396571Y-86177524D01*
X94348952Y-86129905D01*
X94301333Y-86034667D01*
X94301333Y-85796571D01*
X94348952Y-85701333D01*
X94396571Y-85653714D01*
X94491810Y-85606095D01*
X94729905Y-85606095D01*
X94825143Y-85653714D01*
X94872762Y-85701333D01*
X94920381Y-85796571D01*
X94920381Y-86034667D01*
X94872762Y-86129905D01*
X94825143Y-86177524D01*
X90003334Y-65381143D02*
X89955715Y-65428762D01*
X89812858Y-65476381D01*
X89717620Y-65476381D01*
X89574762Y-65428762D01*
X89479524Y-65333524D01*
X89431905Y-65238286D01*
X89384286Y-65047810D01*
X89384286Y-64904952D01*
X89431905Y-64714476D01*
X89479524Y-64619238D01*
X89574762Y-64524000D01*
X89717620Y-64476381D01*
X89812858Y-64476381D01*
X89955715Y-64524000D01*
X90003334Y-64571619D01*
X90336667Y-64476381D02*
X91003334Y-64476381D01*
X90574762Y-65476381D01*
X88003143Y-68175143D02*
X87955524Y-68222762D01*
X87812667Y-68270381D01*
X87717429Y-68270381D01*
X87574571Y-68222762D01*
X87479333Y-68127524D01*
X87431714Y-68032286D01*
X87384095Y-67841810D01*
X87384095Y-67698952D01*
X87431714Y-67508476D01*
X87479333Y-67413238D01*
X87574571Y-67318000D01*
X87717429Y-67270381D01*
X87812667Y-67270381D01*
X87955524Y-67318000D01*
X88003143Y-67365619D01*
X88955524Y-68270381D02*
X88384095Y-68270381D01*
X88669809Y-68270381D02*
X88669809Y-67270381D01*
X88574571Y-67413238D01*
X88479333Y-67508476D01*
X88384095Y-67556095D01*
X89907905Y-68270381D02*
X89336476Y-68270381D01*
X89622190Y-68270381D02*
X89622190Y-67270381D01*
X89526952Y-67413238D01*
X89431714Y-67508476D01*
X89336476Y-67556095D01*
X120737334Y-81891143D02*
X120689715Y-81938762D01*
X120546858Y-81986381D01*
X120451620Y-81986381D01*
X120308762Y-81938762D01*
X120213524Y-81843524D01*
X120165905Y-81748286D01*
X120118286Y-81557810D01*
X120118286Y-81414952D01*
X120165905Y-81224476D01*
X120213524Y-81129238D01*
X120308762Y-81034000D01*
X120451620Y-80986381D01*
X120546858Y-80986381D01*
X120689715Y-81034000D01*
X120737334Y-81081619D01*
X121594477Y-80986381D02*
X121404000Y-80986381D01*
X121308762Y-81034000D01*
X121261143Y-81081619D01*
X121165905Y-81224476D01*
X121118286Y-81414952D01*
X121118286Y-81795905D01*
X121165905Y-81891143D01*
X121213524Y-81938762D01*
X121308762Y-81986381D01*
X121499239Y-81986381D01*
X121594477Y-81938762D01*
X121642096Y-81891143D01*
X121689715Y-81795905D01*
X121689715Y-81557810D01*
X121642096Y-81462571D01*
X121594477Y-81414952D01*
X121499239Y-81367333D01*
X121308762Y-81367333D01*
X121213524Y-81414952D01*
X121165905Y-81462571D01*
X121118286Y-81557810D01*
X123344381Y-96750095D02*
X122344381Y-96750095D01*
X122344381Y-96369142D01*
X122392000Y-96273904D01*
X122439619Y-96226285D01*
X122534857Y-96178666D01*
X122677714Y-96178666D01*
X122772952Y-96226285D01*
X122820571Y-96273904D01*
X122868190Y-96369142D01*
X122868190Y-96750095D01*
X122772952Y-95607238D02*
X122725333Y-95702476D01*
X122677714Y-95750095D01*
X122582476Y-95797714D01*
X122534857Y-95797714D01*
X122439619Y-95750095D01*
X122392000Y-95702476D01*
X122344381Y-95607238D01*
X122344381Y-95416761D01*
X122392000Y-95321523D01*
X122439619Y-95273904D01*
X122534857Y-95226285D01*
X122582476Y-95226285D01*
X122677714Y-95273904D01*
X122725333Y-95321523D01*
X122772952Y-95416761D01*
X122772952Y-95607238D01*
X122820571Y-95702476D01*
X122868190Y-95750095D01*
X122963429Y-95797714D01*
X123153905Y-95797714D01*
X123249143Y-95750095D01*
X123296762Y-95702476D01*
X123344381Y-95607238D01*
X123344381Y-95416761D01*
X123296762Y-95321523D01*
X123249143Y-95273904D01*
X123153905Y-95226285D01*
X122963429Y-95226285D01*
X122868190Y-95273904D01*
X122820571Y-95321523D01*
X122772952Y-95416761D01*
X126261905Y-75680381D02*
X126261905Y-74680381D01*
X126642858Y-74680381D01*
X126738096Y-74728000D01*
X126785715Y-74775619D01*
X126833334Y-74870857D01*
X126833334Y-75013714D01*
X126785715Y-75108952D01*
X126738096Y-75156571D01*
X126642858Y-75204190D01*
X126261905Y-75204190D01*
X127309524Y-75680381D02*
X127500000Y-75680381D01*
X127595239Y-75632762D01*
X127642858Y-75585143D01*
X127738096Y-75442286D01*
X127785715Y-75251810D01*
X127785715Y-74870857D01*
X127738096Y-74775619D01*
X127690477Y-74728000D01*
X127595239Y-74680381D01*
X127404762Y-74680381D01*
X127309524Y-74728000D01*
X127261905Y-74775619D01*
X127214286Y-74870857D01*
X127214286Y-75108952D01*
X127261905Y-75204190D01*
X127309524Y-75251810D01*
X127404762Y-75299429D01*
X127595239Y-75299429D01*
X127690477Y-75251810D01*
X127738096Y-75204190D01*
X127785715Y-75108952D01*
M02*
