G04 #@! TF.FileFunction,Soldermask,Bot*
%FSLAX46Y46*%
G04 Gerber Fmt 4.6, Leading zero omitted, Abs format (unit mm)*
G04 Created by KiCad (PCBNEW 4.0.5) date 09/19/17 16:04:32*
%MOMM*%
%LPD*%
G01*
G04 APERTURE LIST*
%ADD10C,0.100000*%
%ADD11R,1.900000X1.900000*%
%ADD12O,1.900000X1.900000*%
%ADD13R,1.400000X0.950000*%
%ADD14C,1.700000*%
%ADD15R,1.400000X1.100000*%
%ADD16R,1.800000X1.800000*%
%ADD17C,1.800000*%
%ADD18R,2.000000X2.000000*%
%ADD19O,2.000000X2.000000*%
%ADD20R,0.950000X1.400000*%
%ADD21R,1.100000X1.400000*%
%ADD22R,1.760000X0.850000*%
%ADD23C,2.400000*%
%ADD24C,0.254000*%
G04 APERTURE END LIST*
D10*
D11*
X86360000Y-58420000D03*
D12*
X86360000Y-55880000D03*
X88900000Y-58420000D03*
X88900000Y-55880000D03*
X91440000Y-58420000D03*
X91440000Y-55880000D03*
X93980000Y-58420000D03*
X93980000Y-55880000D03*
X96520000Y-58420000D03*
X96520000Y-55880000D03*
X99060000Y-58420000D03*
X99060000Y-55880000D03*
D13*
X97724000Y-67183000D03*
X95824000Y-67183000D03*
D14*
X92202000Y-76200000D03*
D15*
X95674000Y-77216000D03*
X97874000Y-77216000D03*
X94064000Y-53340000D03*
X91864000Y-53340000D03*
D11*
X87122000Y-102108000D03*
D12*
X87122000Y-99568000D03*
X89662000Y-102108000D03*
X89662000Y-99568000D03*
X92202000Y-102108000D03*
X92202000Y-99568000D03*
X94742000Y-102108000D03*
X94742000Y-99568000D03*
X97282000Y-102108000D03*
X97282000Y-99568000D03*
X99822000Y-102108000D03*
X99822000Y-99568000D03*
X102362000Y-102108000D03*
X102362000Y-99568000D03*
X104902000Y-102108000D03*
X104902000Y-99568000D03*
X107442000Y-102108000D03*
X107442000Y-99568000D03*
X109982000Y-102108000D03*
X109982000Y-99568000D03*
D15*
X105326000Y-94742000D03*
X107526000Y-94742000D03*
D16*
X100552000Y-92710000D03*
D17*
X98552000Y-92710000D03*
D18*
X120396000Y-102362000D03*
D19*
X120396000Y-99822000D03*
X120396000Y-97282000D03*
D13*
X111191000Y-71247000D03*
X113091000Y-71247000D03*
X111191000Y-72771000D03*
X113091000Y-72771000D03*
D20*
X82550000Y-77028000D03*
X82550000Y-78928000D03*
X89662000Y-77028000D03*
X89662000Y-78928000D03*
D16*
X109728000Y-91916000D03*
D17*
X109728000Y-89916000D03*
D16*
X127508000Y-78740000D03*
D17*
X127508000Y-76740000D03*
D20*
X85598000Y-93030000D03*
X85598000Y-94930000D03*
X102108000Y-78933000D03*
X102108000Y-80833000D03*
X103632000Y-78933000D03*
X103632000Y-80833000D03*
D13*
X95824000Y-75057000D03*
X97724000Y-75057000D03*
D20*
X103886000Y-65593000D03*
X103886000Y-63693000D03*
D13*
X111318000Y-69215000D03*
X113218000Y-69215000D03*
X111318000Y-75946000D03*
X113218000Y-75946000D03*
X111318000Y-77470000D03*
X113218000Y-77470000D03*
X111318000Y-74422000D03*
X113218000Y-74422000D03*
D20*
X106680000Y-78933000D03*
X106680000Y-80833000D03*
X108204000Y-78933000D03*
X108204000Y-80833000D03*
X110490000Y-65339000D03*
X110490000Y-63439000D03*
X102362000Y-65593000D03*
X102362000Y-63693000D03*
D13*
X97724000Y-73533000D03*
X95824000Y-73533000D03*
D11*
X84963000Y-84201000D03*
D12*
X87503000Y-84201000D03*
X84963000Y-86741000D03*
X87503000Y-86741000D03*
X84963000Y-89281000D03*
X87503000Y-89281000D03*
D11*
X108585000Y-58420000D03*
D12*
X108585000Y-55880000D03*
X111125000Y-58420000D03*
X111125000Y-55880000D03*
X113665000Y-58420000D03*
X113665000Y-55880000D03*
X116205000Y-58420000D03*
X116205000Y-55880000D03*
X118745000Y-58420000D03*
X118745000Y-55880000D03*
X121285000Y-58420000D03*
X121285000Y-55880000D03*
D21*
X117602000Y-92372000D03*
X117602000Y-94572000D03*
X117602000Y-87884000D03*
X117602000Y-90084000D03*
D15*
X106002000Y-92964000D03*
X103802000Y-92964000D03*
X82634000Y-89154000D03*
X80434000Y-89154000D03*
D21*
X87376000Y-92880000D03*
X87376000Y-95080000D03*
D15*
X87714000Y-79248000D03*
X85514000Y-79248000D03*
X93810000Y-61722000D03*
X91610000Y-61722000D03*
X86952000Y-77724000D03*
X84752000Y-77724000D03*
D22*
X90518000Y-94610000D03*
X90518000Y-93660000D03*
X90518000Y-92710000D03*
X93218000Y-92710000D03*
X93218000Y-94610000D03*
X93218000Y-93660000D03*
D14*
X82550000Y-71374000D03*
X96520000Y-80010000D03*
X95504000Y-90932000D03*
X99822000Y-89154000D03*
X112522000Y-94742000D03*
D11*
X125222000Y-96012000D03*
D12*
X127762000Y-96012000D03*
D11*
X127000000Y-72898000D03*
D12*
X127000000Y-70358000D03*
D23*
X80010000Y-102616000D03*
X127762000Y-102616000D03*
X127762000Y-54864000D03*
X80010000Y-54864000D03*
D24*
G36*
X107569000Y-75311000D02*
X101219000Y-75311000D01*
X101219000Y-68961000D01*
X107569000Y-68961000D01*
X107569000Y-75311000D01*
X107569000Y-75311000D01*
G37*
X107569000Y-75311000D02*
X101219000Y-75311000D01*
X101219000Y-68961000D01*
X107569000Y-68961000D01*
X107569000Y-75311000D01*
M02*
