G04 #@! TF.FileFunction,Soldermask,Top*
%FSLAX46Y46*%
G04 Gerber Fmt 4.6, Leading zero omitted, Abs format (unit mm)*
G04 Created by KiCad (PCBNEW 4.0.5) date 09/19/17 16:04:32*
%MOMM*%
%LPD*%
G01*
G04 APERTURE LIST*
%ADD10C,0.100000*%
%ADD11R,1.900000X1.900000*%
%ADD12O,1.900000X1.900000*%
%ADD13R,1.700000X0.500000*%
%ADD14R,0.500000X1.700000*%
%ADD15R,6.400000X6.400000*%
%ADD16R,0.950000X1.400000*%
%ADD17R,1.950000X0.650000*%
%ADD18R,1.800000X1.800000*%
%ADD19C,1.800000*%
%ADD20R,2.000000X2.000000*%
%ADD21O,2.000000X2.000000*%
%ADD22R,1.400000X0.950000*%
%ADD23R,1.100000X1.400000*%
%ADD24R,1.400000X1.100000*%
%ADD25R,2.400000X1.400000*%
%ADD26R,6.600000X6.000000*%
%ADD27C,2.400000*%
G04 APERTURE END LIST*
D10*
D11*
X86360000Y-58420000D03*
D12*
X86360000Y-55880000D03*
X88900000Y-58420000D03*
X88900000Y-55880000D03*
X91440000Y-58420000D03*
X91440000Y-55880000D03*
X93980000Y-58420000D03*
X93980000Y-55880000D03*
X96520000Y-58420000D03*
X96520000Y-55880000D03*
X99060000Y-58420000D03*
X99060000Y-55880000D03*
D13*
X112134000Y-78183000D03*
X112134000Y-77683000D03*
X112134000Y-77183000D03*
X112134000Y-76683000D03*
X112134000Y-76183000D03*
X112134000Y-75683000D03*
X112134000Y-75183000D03*
X112134000Y-74683000D03*
X112134000Y-74183000D03*
X112134000Y-73683000D03*
X112134000Y-73183000D03*
X112134000Y-72683000D03*
X112134000Y-72183000D03*
X112134000Y-71683000D03*
X112134000Y-71183000D03*
X112134000Y-70683000D03*
X112134000Y-70183000D03*
X112134000Y-69683000D03*
X112134000Y-69183000D03*
X112134000Y-68683000D03*
X112134000Y-68183000D03*
X112134000Y-67683000D03*
X112134000Y-67183000D03*
X112134000Y-66683000D03*
X112134000Y-66183000D03*
D14*
X110434000Y-64483000D03*
X109934000Y-64483000D03*
X109434000Y-64483000D03*
X108934000Y-64483000D03*
X108434000Y-64483000D03*
X107934000Y-64483000D03*
X107434000Y-64483000D03*
X106934000Y-64483000D03*
X106434000Y-64483000D03*
X105934000Y-64483000D03*
X105434000Y-64483000D03*
X104934000Y-64483000D03*
X104434000Y-64483000D03*
X103934000Y-64483000D03*
X103434000Y-64483000D03*
X102934000Y-64483000D03*
X102434000Y-64483000D03*
X101934000Y-64483000D03*
X101434000Y-64483000D03*
X100934000Y-64483000D03*
X100434000Y-64483000D03*
X99934000Y-64483000D03*
X99434000Y-64483000D03*
X98934000Y-64483000D03*
X98434000Y-64483000D03*
D13*
X96734000Y-66183000D03*
X96734000Y-66683000D03*
X96734000Y-67183000D03*
X96734000Y-67683000D03*
X96734000Y-68183000D03*
X96734000Y-68683000D03*
X96734000Y-69183000D03*
X96734000Y-69683000D03*
X96734000Y-70183000D03*
X96734000Y-70683000D03*
X96734000Y-71183000D03*
X96734000Y-71683000D03*
X96734000Y-72183000D03*
X96734000Y-72683000D03*
X96734000Y-73183000D03*
X96734000Y-73683000D03*
X96734000Y-74183000D03*
X96734000Y-74683000D03*
X96734000Y-75183000D03*
X96734000Y-75683000D03*
X96734000Y-76183000D03*
X96734000Y-76683000D03*
X96734000Y-77183000D03*
X96734000Y-77683000D03*
X96734000Y-78183000D03*
D14*
X98434000Y-79883000D03*
X98934000Y-79883000D03*
X99434000Y-79883000D03*
X99934000Y-79883000D03*
X100434000Y-79883000D03*
X100934000Y-79883000D03*
X101434000Y-79883000D03*
X101934000Y-79883000D03*
X102434000Y-79883000D03*
X102934000Y-79883000D03*
X103434000Y-79883000D03*
X103934000Y-79883000D03*
X104434000Y-79883000D03*
X104934000Y-79883000D03*
X105434000Y-79883000D03*
X105934000Y-79883000D03*
X106434000Y-79883000D03*
X106934000Y-79883000D03*
X107434000Y-79883000D03*
X107934000Y-79883000D03*
X108434000Y-79883000D03*
X108934000Y-79883000D03*
X109434000Y-79883000D03*
X109934000Y-79883000D03*
X110434000Y-79883000D03*
D15*
X104434000Y-72183000D03*
D16*
X122174000Y-77282000D03*
X122174000Y-79182000D03*
D17*
X82506000Y-74037000D03*
X82506000Y-74687000D03*
X82506000Y-75337000D03*
X82506000Y-75987000D03*
X82506000Y-76637000D03*
X82506000Y-77287000D03*
X82506000Y-77937000D03*
X82506000Y-78587000D03*
X82506000Y-79237000D03*
X82506000Y-79887000D03*
X89706000Y-79887000D03*
X89706000Y-79237000D03*
X89706000Y-78587000D03*
X89706000Y-77937000D03*
X89706000Y-77287000D03*
X89706000Y-76637000D03*
X89706000Y-75987000D03*
X89706000Y-75337000D03*
X89706000Y-74687000D03*
X89706000Y-74037000D03*
D11*
X87122000Y-102108000D03*
D12*
X87122000Y-99568000D03*
X89662000Y-102108000D03*
X89662000Y-99568000D03*
X92202000Y-102108000D03*
X92202000Y-99568000D03*
X94742000Y-102108000D03*
X94742000Y-99568000D03*
X97282000Y-102108000D03*
X97282000Y-99568000D03*
X99822000Y-102108000D03*
X99822000Y-99568000D03*
X102362000Y-102108000D03*
X102362000Y-99568000D03*
X104902000Y-102108000D03*
X104902000Y-99568000D03*
X107442000Y-102108000D03*
X107442000Y-99568000D03*
X109982000Y-102108000D03*
X109982000Y-99568000D03*
D18*
X100552000Y-92710000D03*
D19*
X98552000Y-92710000D03*
D20*
X120396000Y-102362000D03*
D21*
X120396000Y-99822000D03*
X120396000Y-97282000D03*
D16*
X118745000Y-82997000D03*
X118745000Y-84897000D03*
D18*
X109728000Y-91916000D03*
D19*
X109728000Y-89916000D03*
D18*
X127508000Y-78740000D03*
D19*
X127508000Y-76740000D03*
D16*
X92202000Y-66924000D03*
X92202000Y-65024000D03*
X119126000Y-78552000D03*
X119126000Y-80452000D03*
X92075000Y-69281000D03*
X92075000Y-71181000D03*
X96774000Y-86172000D03*
X96774000Y-88072000D03*
X104394000Y-83124000D03*
X104394000Y-85024000D03*
D22*
X117160000Y-75819000D03*
X119060000Y-75819000D03*
X117160000Y-72771000D03*
X119060000Y-72771000D03*
D16*
X110744000Y-84267000D03*
X110744000Y-86167000D03*
X116840000Y-79187000D03*
X116840000Y-81087000D03*
D22*
X117160000Y-69596000D03*
X119060000Y-69596000D03*
D16*
X100838000Y-84267000D03*
X100838000Y-86167000D03*
X109220000Y-84267000D03*
X109220000Y-86167000D03*
X115316000Y-79187000D03*
X115316000Y-81087000D03*
D22*
X117160000Y-74295000D03*
X119060000Y-74295000D03*
D16*
X107696000Y-84267000D03*
X107696000Y-86167000D03*
X113792000Y-84267000D03*
X113792000Y-86167000D03*
D22*
X117160000Y-71120000D03*
X119060000Y-71120000D03*
X117160000Y-68072000D03*
X119060000Y-68072000D03*
D16*
X99060000Y-84267000D03*
X99060000Y-86167000D03*
X112268000Y-84267000D03*
X112268000Y-86167000D03*
X102870000Y-83124000D03*
X102870000Y-85024000D03*
D11*
X84963000Y-84201000D03*
D12*
X87503000Y-84201000D03*
X84963000Y-86741000D03*
X87503000Y-86741000D03*
X84963000Y-89281000D03*
X87503000Y-89281000D03*
D23*
X122936000Y-84920000D03*
X122936000Y-82720000D03*
X85344000Y-66548000D03*
X85344000Y-64348000D03*
D24*
X123528000Y-74930000D03*
X121328000Y-74930000D03*
D23*
X85344000Y-71585000D03*
X85344000Y-69385000D03*
X90170000Y-88222000D03*
X90170000Y-86022000D03*
D11*
X108585000Y-58420000D03*
D12*
X108585000Y-55880000D03*
X111125000Y-58420000D03*
X111125000Y-55880000D03*
X113665000Y-58420000D03*
X113665000Y-55880000D03*
X116205000Y-58420000D03*
X116205000Y-55880000D03*
X118745000Y-58420000D03*
X118745000Y-55880000D03*
X121285000Y-58420000D03*
X121285000Y-55880000D03*
D23*
X94742000Y-81618000D03*
X94742000Y-79418000D03*
X92964000Y-80602000D03*
X92964000Y-78402000D03*
X105918000Y-85174000D03*
X105918000Y-82974000D03*
D25*
X117466000Y-87890000D03*
X117466000Y-92450000D03*
D26*
X123766000Y-90170000D03*
D16*
X93218000Y-85918000D03*
X93218000Y-87818000D03*
X88646000Y-65974000D03*
X88646000Y-64074000D03*
X88646000Y-69408000D03*
X88646000Y-71308000D03*
X120904000Y-83124000D03*
X120904000Y-85024000D03*
D11*
X125222000Y-96012000D03*
D12*
X127762000Y-96012000D03*
D11*
X127000000Y-72898000D03*
D12*
X127000000Y-70358000D03*
D27*
X80010000Y-102616000D03*
X127762000Y-102616000D03*
X127762000Y-54864000D03*
X80010000Y-54864000D03*
M02*
