M48
;DRILL file {KiCad 4.0.5} date 09/19/17 16:04:35
;FORMAT={-:-/ absolute / inch / decimal}
FMAT,2
INCH,TZ
T1C0.016
T2C0.031
T3C0.039
%
G90
G05
M72
T1
X3.1Y-3.36
X3.12Y-3.51
X3.25Y-2.88
X3.25Y-3.18
X3.2931Y-3.0172
X3.3Y-2.97
X3.3159Y-3.0483
X3.43Y-2.98
X3.45Y-3.07
X3.48Y-3.12
X3.48Y-3.74
X3.4853Y-3.0439
X3.51Y-2.6
X3.51Y-2.81
X3.56Y-3.77
X3.5766Y-3.0172
X3.62Y-2.84
X3.63Y-2.67
X3.65Y-2.56
X3.65Y-3.46
X3.66Y-3.
X3.675Y-2.725
X3.71Y-3.01
X3.735Y-3.04
X3.74Y-2.645
X3.74Y-2.895
X3.74Y-2.955
X3.79Y-3.47
X3.8Y-3.15
X3.84Y-2.54
X3.86Y-2.78
X3.865Y-3.225
X3.88Y-2.645
X3.88Y-2.6876
X3.88Y-2.895
X3.88Y-2.955
X3.9Y-3.43
X3.9232Y-2.6085
X3.93Y-3.45
X3.935Y-3.09
X3.945Y-3.205
X3.9587Y-3.0777
X3.97Y-3.43
X4.02Y-3.075
X4.02Y-3.215
X4.03Y-2.615
X4.0316Y-2.7619
X4.0316Y-2.8012
X4.0316Y-2.8406
X4.0316Y-2.88
X4.0316Y-2.9193
X4.05Y-2.47
X4.0597Y-3.2196
X4.0709Y-2.7619
X4.0709Y-2.8012
X4.0709Y-2.8406
X4.0709Y-2.88
X4.0709Y-2.9193
X4.08Y-3.075
X4.09Y-2.475
X4.09Y-2.615
X4.1103Y-2.7619
X4.1103Y-2.8012
X4.1103Y-2.8406
X4.1103Y-2.88
X4.1103Y-2.9193
X4.1497Y-2.7619
X4.1497Y-2.8012
X4.1497Y-2.8406
X4.1497Y-2.88
X4.1497Y-2.9193
X4.1608Y-3.1892
X4.1891Y-2.7619
X4.1891Y-2.8012
X4.1891Y-2.8406
X4.1891Y-2.88
X4.1891Y-2.9193
X4.2Y-3.075
X4.2Y-3.215
X4.2389Y-3.246
X4.24Y-3.43
X4.24Y-3.2145
X4.26Y-3.075
X4.3Y-3.43
X4.345Y-2.805
X4.345Y-2.865
X4.35Y-2.465
X4.35Y-2.605
X4.35Y-2.72
X4.35Y-2.93
X4.35Y-2.99
X4.35Y-3.05
X4.36Y-3.43
X4.41Y-3.15
X4.42Y-3.43
X4.46Y-2.69
X4.48Y-3.43
X4.485Y-2.805
X4.49Y-2.85
X4.49Y-2.94
X4.49Y-2.99
X4.49Y-3.05
X4.6Y-3.24
X4.68Y-3.46
X4.7Y-3.34
X4.72Y-2.68
X4.72Y-2.74
X4.72Y-2.8
X4.72Y-2.86
X4.72Y-2.93
X4.72Y-2.99
X4.72Y-3.17
X4.74Y-3.54
X4.79Y-3.12
X4.86Y-3.34
X5.06Y-3.35
T2
X3.88Y-3.65
X3.9587Y-3.65
X4.32Y-3.54
X4.32Y-3.6187
X5.02Y-3.0213
X5.02Y-3.1
T3
X3.345Y-3.315
X3.345Y-3.415
X3.345Y-3.515
X3.4Y-2.2
X3.4Y-2.3
X3.43Y-3.92
X3.43Y-4.02
X3.445Y-3.315
X3.445Y-3.415
X3.445Y-3.515
X3.5Y-2.2
X3.5Y-2.3
X3.53Y-3.92
X3.53Y-4.02
X3.6Y-2.2
X3.6Y-2.3
X3.63Y-3.92
X3.63Y-4.02
X3.7Y-2.2
X3.7Y-2.3
X3.73Y-3.92
X3.73Y-4.02
X3.8Y-2.2
X3.8Y-2.3
X3.83Y-3.92
X3.83Y-4.02
X3.9Y-2.2
X3.9Y-2.3
X3.93Y-3.92
X3.93Y-4.02
X4.03Y-3.92
X4.03Y-4.02
X4.13Y-3.92
X4.13Y-4.02
X4.23Y-3.92
X4.23Y-4.02
X4.275Y-2.2
X4.275Y-2.3
X4.33Y-3.92
X4.33Y-4.02
X4.375Y-2.2
X4.375Y-2.3
X4.475Y-2.2
X4.475Y-2.3
X4.575Y-2.2
X4.575Y-2.3
X4.675Y-2.2
X4.675Y-2.3
X4.74Y-3.83
X4.74Y-3.93
X4.74Y-4.03
X4.775Y-2.2
X4.775Y-2.3
X4.93Y-3.78
X5.Y-2.77
X5.Y-2.87
X5.03Y-3.78
T0
M30
