G04 #@! TF.FileFunction,Legend,Bot*
%FSLAX46Y46*%
G04 Gerber Fmt 4.6, Leading zero omitted, Abs format (unit mm)*
G04 Created by KiCad (PCBNEW 4.0.5) date 09/19/17 16:04:32*
%MOMM*%
%LPD*%
G01*
G04 APERTURE LIST*
%ADD10C,0.100000*%
%ADD11C,0.120000*%
%ADD12C,0.150000*%
G04 APERTURE END LIST*
D10*
D11*
X97124000Y-66583000D02*
X96424000Y-66583000D01*
X96424000Y-67783000D02*
X97124000Y-67783000D01*
X97274000Y-76536000D02*
X96274000Y-76536000D01*
X96274000Y-77896000D02*
X97274000Y-77896000D01*
X92464000Y-54020000D02*
X93464000Y-54020000D01*
X93464000Y-52660000D02*
X92464000Y-52660000D01*
X106926000Y-94062000D02*
X105926000Y-94062000D01*
X105926000Y-95422000D02*
X106926000Y-95422000D01*
X111791000Y-71847000D02*
X112491000Y-71847000D01*
X112491000Y-70647000D02*
X111791000Y-70647000D01*
X111791000Y-73371000D02*
X112491000Y-73371000D01*
X112491000Y-72171000D02*
X111791000Y-72171000D01*
X81950000Y-77628000D02*
X81950000Y-78328000D01*
X83150000Y-78328000D02*
X83150000Y-77628000D01*
X89062000Y-77628000D02*
X89062000Y-78328000D01*
X90262000Y-78328000D02*
X90262000Y-77628000D01*
X84998000Y-93630000D02*
X84998000Y-94330000D01*
X86198000Y-94330000D02*
X86198000Y-93630000D01*
X101508000Y-79533000D02*
X101508000Y-80233000D01*
X102708000Y-80233000D02*
X102708000Y-79533000D01*
X103032000Y-79533000D02*
X103032000Y-80233000D01*
X104232000Y-80233000D02*
X104232000Y-79533000D01*
X96424000Y-75657000D02*
X97124000Y-75657000D01*
X97124000Y-74457000D02*
X96424000Y-74457000D01*
X104486000Y-64993000D02*
X104486000Y-64293000D01*
X103286000Y-64293000D02*
X103286000Y-64993000D01*
X111918000Y-69815000D02*
X112618000Y-69815000D01*
X112618000Y-68615000D02*
X111918000Y-68615000D01*
X111918000Y-76546000D02*
X112618000Y-76546000D01*
X112618000Y-75346000D02*
X111918000Y-75346000D01*
X111918000Y-78070000D02*
X112618000Y-78070000D01*
X112618000Y-76870000D02*
X111918000Y-76870000D01*
X111918000Y-75022000D02*
X112618000Y-75022000D01*
X112618000Y-73822000D02*
X111918000Y-73822000D01*
X106080000Y-79533000D02*
X106080000Y-80233000D01*
X107280000Y-80233000D02*
X107280000Y-79533000D01*
X107604000Y-79533000D02*
X107604000Y-80233000D01*
X108804000Y-80233000D02*
X108804000Y-79533000D01*
X111090000Y-64739000D02*
X111090000Y-64039000D01*
X109890000Y-64039000D02*
X109890000Y-64739000D01*
X102962000Y-64993000D02*
X102962000Y-64293000D01*
X101762000Y-64293000D02*
X101762000Y-64993000D01*
X97124000Y-72933000D02*
X96424000Y-72933000D01*
X96424000Y-74133000D02*
X97124000Y-74133000D01*
X118282000Y-93972000D02*
X118282000Y-92972000D01*
X116922000Y-92972000D02*
X116922000Y-93972000D01*
X118282000Y-89484000D02*
X118282000Y-88484000D01*
X116922000Y-88484000D02*
X116922000Y-89484000D01*
X104402000Y-93644000D02*
X105402000Y-93644000D01*
X105402000Y-92284000D02*
X104402000Y-92284000D01*
X81034000Y-89834000D02*
X82034000Y-89834000D01*
X82034000Y-88474000D02*
X81034000Y-88474000D01*
X88056000Y-94480000D02*
X88056000Y-93480000D01*
X86696000Y-93480000D02*
X86696000Y-94480000D01*
X86114000Y-79928000D02*
X87114000Y-79928000D01*
X87114000Y-78568000D02*
X86114000Y-78568000D01*
X92210000Y-62402000D02*
X93210000Y-62402000D01*
X93210000Y-61042000D02*
X92210000Y-61042000D01*
X85352000Y-78404000D02*
X86352000Y-78404000D01*
X86352000Y-77044000D02*
X85352000Y-77044000D01*
X90968000Y-92050000D02*
X92768000Y-92050000D01*
X92768000Y-95270000D02*
X89818000Y-95270000D01*
D12*
X94114857Y-67540143D02*
X94162476Y-67587762D01*
X94305333Y-67635381D01*
X94400571Y-67635381D01*
X94543429Y-67587762D01*
X94638667Y-67492524D01*
X94686286Y-67397286D01*
X94733905Y-67206810D01*
X94733905Y-67063952D01*
X94686286Y-66873476D01*
X94638667Y-66778238D01*
X94543429Y-66683000D01*
X94400571Y-66635381D01*
X94305333Y-66635381D01*
X94162476Y-66683000D01*
X94114857Y-66730619D01*
X93210095Y-66635381D02*
X93686286Y-66635381D01*
X93733905Y-67111571D01*
X93686286Y-67063952D01*
X93591048Y-67016333D01*
X93352952Y-67016333D01*
X93257714Y-67063952D01*
X93210095Y-67111571D01*
X93162476Y-67206810D01*
X93162476Y-67444905D01*
X93210095Y-67540143D01*
X93257714Y-67587762D01*
X93352952Y-67635381D01*
X93591048Y-67635381D01*
X93686286Y-67587762D01*
X93733905Y-67540143D01*
X92543429Y-66635381D02*
X92448190Y-66635381D01*
X92352952Y-66683000D01*
X92305333Y-66730619D01*
X92257714Y-66825857D01*
X92210095Y-67016333D01*
X92210095Y-67254429D01*
X92257714Y-67444905D01*
X92305333Y-67540143D01*
X92352952Y-67587762D01*
X92448190Y-67635381D01*
X92543429Y-67635381D01*
X92638667Y-67587762D01*
X92686286Y-67540143D01*
X92733905Y-67444905D01*
X92781524Y-67254429D01*
X92781524Y-67016333D01*
X92733905Y-66825857D01*
X92686286Y-66730619D01*
X92638667Y-66683000D01*
X92543429Y-66635381D01*
X93463905Y-77652381D02*
X92892476Y-77652381D01*
X93178191Y-78652381D02*
X93178191Y-77652381D01*
X92559143Y-78652381D02*
X92559143Y-77652381D01*
X92178190Y-77652381D01*
X92082952Y-77700000D01*
X92035333Y-77747619D01*
X91987714Y-77842857D01*
X91987714Y-77985714D01*
X92035333Y-78080952D01*
X92082952Y-78128571D01*
X92178190Y-78176190D01*
X92559143Y-78176190D01*
X91654381Y-77652381D02*
X91035333Y-77652381D01*
X91368667Y-78033333D01*
X91225809Y-78033333D01*
X91130571Y-78080952D01*
X91082952Y-78128571D01*
X91035333Y-78223810D01*
X91035333Y-78461905D01*
X91082952Y-78557143D01*
X91130571Y-78604762D01*
X91225809Y-78652381D01*
X91511524Y-78652381D01*
X91606762Y-78604762D01*
X91654381Y-78557143D01*
X97416857Y-79118381D02*
X97750191Y-78642190D01*
X97988286Y-79118381D02*
X97988286Y-78118381D01*
X97607333Y-78118381D01*
X97512095Y-78166000D01*
X97464476Y-78213619D01*
X97416857Y-78308857D01*
X97416857Y-78451714D01*
X97464476Y-78546952D01*
X97512095Y-78594571D01*
X97607333Y-78642190D01*
X97988286Y-78642190D01*
X96464476Y-79118381D02*
X97035905Y-79118381D01*
X96750191Y-79118381D02*
X96750191Y-78118381D01*
X96845429Y-78261238D01*
X96940667Y-78356476D01*
X97035905Y-78404095D01*
X95559714Y-78118381D02*
X96035905Y-78118381D01*
X96083524Y-78594571D01*
X96035905Y-78546952D01*
X95940667Y-78499333D01*
X95702571Y-78499333D01*
X95607333Y-78546952D01*
X95559714Y-78594571D01*
X95512095Y-78689810D01*
X95512095Y-78927905D01*
X95559714Y-79023143D01*
X95607333Y-79070762D01*
X95702571Y-79118381D01*
X95940667Y-79118381D01*
X96035905Y-79070762D01*
X96083524Y-79023143D01*
X97162857Y-53792381D02*
X97496191Y-53316190D01*
X97734286Y-53792381D02*
X97734286Y-52792381D01*
X97353333Y-52792381D01*
X97258095Y-52840000D01*
X97210476Y-52887619D01*
X97162857Y-52982857D01*
X97162857Y-53125714D01*
X97210476Y-53220952D01*
X97258095Y-53268571D01*
X97353333Y-53316190D01*
X97734286Y-53316190D01*
X96210476Y-53792381D02*
X96781905Y-53792381D01*
X96496191Y-53792381D02*
X96496191Y-52792381D01*
X96591429Y-52935238D01*
X96686667Y-53030476D01*
X96781905Y-53078095D01*
X95877143Y-52792381D02*
X95258095Y-52792381D01*
X95591429Y-53173333D01*
X95448571Y-53173333D01*
X95353333Y-53220952D01*
X95305714Y-53268571D01*
X95258095Y-53363810D01*
X95258095Y-53601905D01*
X95305714Y-53697143D01*
X95353333Y-53744762D01*
X95448571Y-53792381D01*
X95734286Y-53792381D01*
X95829524Y-53744762D01*
X95877143Y-53697143D01*
X103544666Y-95194381D02*
X104020857Y-95194381D01*
X104020857Y-94194381D01*
X102687523Y-95194381D02*
X103258952Y-95194381D01*
X102973238Y-95194381D02*
X102973238Y-94194381D01*
X103068476Y-94337238D01*
X103163714Y-94432476D01*
X103258952Y-94480095D01*
X116085857Y-71604143D02*
X116133476Y-71651762D01*
X116276333Y-71699381D01*
X116371571Y-71699381D01*
X116514429Y-71651762D01*
X116609667Y-71556524D01*
X116657286Y-71461286D01*
X116704905Y-71270810D01*
X116704905Y-71127952D01*
X116657286Y-70937476D01*
X116609667Y-70842238D01*
X116514429Y-70747000D01*
X116371571Y-70699381D01*
X116276333Y-70699381D01*
X116133476Y-70747000D01*
X116085857Y-70794619D01*
X115228714Y-71032714D02*
X115228714Y-71699381D01*
X115466810Y-70651762D02*
X115704905Y-71366048D01*
X115085857Y-71366048D01*
X114276333Y-70699381D02*
X114466810Y-70699381D01*
X114562048Y-70747000D01*
X114609667Y-70794619D01*
X114704905Y-70937476D01*
X114752524Y-71127952D01*
X114752524Y-71508905D01*
X114704905Y-71604143D01*
X114657286Y-71651762D01*
X114562048Y-71699381D01*
X114371571Y-71699381D01*
X114276333Y-71651762D01*
X114228714Y-71604143D01*
X114181095Y-71508905D01*
X114181095Y-71270810D01*
X114228714Y-71175571D01*
X114276333Y-71127952D01*
X114371571Y-71080333D01*
X114562048Y-71080333D01*
X114657286Y-71127952D01*
X114704905Y-71175571D01*
X114752524Y-71270810D01*
X116085857Y-73255143D02*
X116133476Y-73302762D01*
X116276333Y-73350381D01*
X116371571Y-73350381D01*
X116514429Y-73302762D01*
X116609667Y-73207524D01*
X116657286Y-73112286D01*
X116704905Y-72921810D01*
X116704905Y-72778952D01*
X116657286Y-72588476D01*
X116609667Y-72493238D01*
X116514429Y-72398000D01*
X116371571Y-72350381D01*
X116276333Y-72350381D01*
X116133476Y-72398000D01*
X116085857Y-72445619D01*
X115228714Y-72683714D02*
X115228714Y-73350381D01*
X115466810Y-72302762D02*
X115704905Y-73017048D01*
X115085857Y-73017048D01*
X114800143Y-72350381D02*
X114133476Y-72350381D01*
X114562048Y-73350381D01*
X81657143Y-77811334D02*
X81704762Y-77763715D01*
X81752381Y-77620858D01*
X81752381Y-77525620D01*
X81704762Y-77382762D01*
X81609524Y-77287524D01*
X81514286Y-77239905D01*
X81323810Y-77192286D01*
X81180952Y-77192286D01*
X80990476Y-77239905D01*
X80895238Y-77287524D01*
X80800000Y-77382762D01*
X80752381Y-77525620D01*
X80752381Y-77620858D01*
X80800000Y-77763715D01*
X80847619Y-77811334D01*
X80847619Y-78192286D02*
X80800000Y-78239905D01*
X80752381Y-78335143D01*
X80752381Y-78573239D01*
X80800000Y-78668477D01*
X80847619Y-78716096D01*
X80942857Y-78763715D01*
X81038095Y-78763715D01*
X81180952Y-78716096D01*
X81752381Y-78144667D01*
X81752381Y-78763715D01*
X89828666Y-81129143D02*
X89876285Y-81176762D01*
X90019142Y-81224381D01*
X90114380Y-81224381D01*
X90257238Y-81176762D01*
X90352476Y-81081524D01*
X90400095Y-80986286D01*
X90447714Y-80795810D01*
X90447714Y-80652952D01*
X90400095Y-80462476D01*
X90352476Y-80367238D01*
X90257238Y-80272000D01*
X90114380Y-80224381D01*
X90019142Y-80224381D01*
X89876285Y-80272000D01*
X89828666Y-80319619D01*
X89495333Y-80224381D02*
X88876285Y-80224381D01*
X89209619Y-80605333D01*
X89066761Y-80605333D01*
X88971523Y-80652952D01*
X88923904Y-80700571D01*
X88876285Y-80795810D01*
X88876285Y-81033905D01*
X88923904Y-81129143D01*
X88971523Y-81176762D01*
X89066761Y-81224381D01*
X89352476Y-81224381D01*
X89447714Y-81176762D01*
X89495333Y-81129143D01*
X84208857Y-94337143D02*
X84256476Y-94384762D01*
X84399333Y-94432381D01*
X84494571Y-94432381D01*
X84637429Y-94384762D01*
X84732667Y-94289524D01*
X84780286Y-94194286D01*
X84827905Y-94003810D01*
X84827905Y-93860952D01*
X84780286Y-93670476D01*
X84732667Y-93575238D01*
X84637429Y-93480000D01*
X84494571Y-93432381D01*
X84399333Y-93432381D01*
X84256476Y-93480000D01*
X84208857Y-93527619D01*
X83256476Y-94432381D02*
X83827905Y-94432381D01*
X83542191Y-94432381D02*
X83542191Y-93432381D01*
X83637429Y-93575238D01*
X83732667Y-93670476D01*
X83827905Y-93718095D01*
X82875524Y-93527619D02*
X82827905Y-93480000D01*
X82732667Y-93432381D01*
X82494571Y-93432381D01*
X82399333Y-93480000D01*
X82351714Y-93527619D01*
X82304095Y-93622857D01*
X82304095Y-93718095D01*
X82351714Y-93860952D01*
X82923143Y-94432381D01*
X82304095Y-94432381D01*
X102465143Y-82542143D02*
X102512762Y-82494524D01*
X102560381Y-82351667D01*
X102560381Y-82256429D01*
X102512762Y-82113571D01*
X102417524Y-82018333D01*
X102322286Y-81970714D01*
X102131810Y-81923095D01*
X101988952Y-81923095D01*
X101798476Y-81970714D01*
X101703238Y-82018333D01*
X101608000Y-82113571D01*
X101560381Y-82256429D01*
X101560381Y-82351667D01*
X101608000Y-82494524D01*
X101655619Y-82542143D01*
X101560381Y-82875476D02*
X101560381Y-83494524D01*
X101941333Y-83161190D01*
X101941333Y-83304048D01*
X101988952Y-83399286D01*
X102036571Y-83446905D01*
X102131810Y-83494524D01*
X102369905Y-83494524D01*
X102465143Y-83446905D01*
X102512762Y-83399286D01*
X102560381Y-83304048D01*
X102560381Y-83018333D01*
X102512762Y-82923095D01*
X102465143Y-82875476D01*
X101560381Y-84351667D02*
X101560381Y-84161190D01*
X101608000Y-84065952D01*
X101655619Y-84018333D01*
X101798476Y-83923095D01*
X101988952Y-83875476D01*
X102369905Y-83875476D01*
X102465143Y-83923095D01*
X102512762Y-83970714D01*
X102560381Y-84065952D01*
X102560381Y-84256429D01*
X102512762Y-84351667D01*
X102465143Y-84399286D01*
X102369905Y-84446905D01*
X102131810Y-84446905D01*
X102036571Y-84399286D01*
X101988952Y-84351667D01*
X101941333Y-84256429D01*
X101941333Y-84065952D01*
X101988952Y-83970714D01*
X102036571Y-83923095D01*
X102131810Y-83875476D01*
X103989143Y-82542143D02*
X104036762Y-82494524D01*
X104084381Y-82351667D01*
X104084381Y-82256429D01*
X104036762Y-82113571D01*
X103941524Y-82018333D01*
X103846286Y-81970714D01*
X103655810Y-81923095D01*
X103512952Y-81923095D01*
X103322476Y-81970714D01*
X103227238Y-82018333D01*
X103132000Y-82113571D01*
X103084381Y-82256429D01*
X103084381Y-82351667D01*
X103132000Y-82494524D01*
X103179619Y-82542143D01*
X103084381Y-82875476D02*
X103084381Y-83494524D01*
X103465333Y-83161190D01*
X103465333Y-83304048D01*
X103512952Y-83399286D01*
X103560571Y-83446905D01*
X103655810Y-83494524D01*
X103893905Y-83494524D01*
X103989143Y-83446905D01*
X104036762Y-83399286D01*
X104084381Y-83304048D01*
X104084381Y-83018333D01*
X104036762Y-82923095D01*
X103989143Y-82875476D01*
X103084381Y-83827857D02*
X103084381Y-84494524D01*
X104084381Y-84065952D01*
X94114857Y-75414143D02*
X94162476Y-75461762D01*
X94305333Y-75509381D01*
X94400571Y-75509381D01*
X94543429Y-75461762D01*
X94638667Y-75366524D01*
X94686286Y-75271286D01*
X94733905Y-75080810D01*
X94733905Y-74937952D01*
X94686286Y-74747476D01*
X94638667Y-74652238D01*
X94543429Y-74557000D01*
X94400571Y-74509381D01*
X94305333Y-74509381D01*
X94162476Y-74557000D01*
X94114857Y-74604619D01*
X93781524Y-74509381D02*
X93162476Y-74509381D01*
X93495810Y-74890333D01*
X93352952Y-74890333D01*
X93257714Y-74937952D01*
X93210095Y-74985571D01*
X93162476Y-75080810D01*
X93162476Y-75318905D01*
X93210095Y-75414143D01*
X93257714Y-75461762D01*
X93352952Y-75509381D01*
X93638667Y-75509381D01*
X93733905Y-75461762D01*
X93781524Y-75414143D01*
X92591048Y-74937952D02*
X92686286Y-74890333D01*
X92733905Y-74842714D01*
X92781524Y-74747476D01*
X92781524Y-74699857D01*
X92733905Y-74604619D01*
X92686286Y-74557000D01*
X92591048Y-74509381D01*
X92400571Y-74509381D01*
X92305333Y-74557000D01*
X92257714Y-74604619D01*
X92210095Y-74699857D01*
X92210095Y-74747476D01*
X92257714Y-74842714D01*
X92305333Y-74890333D01*
X92400571Y-74937952D01*
X92591048Y-74937952D01*
X92686286Y-74985571D01*
X92733905Y-75033190D01*
X92781524Y-75128429D01*
X92781524Y-75318905D01*
X92733905Y-75414143D01*
X92686286Y-75461762D01*
X92591048Y-75509381D01*
X92400571Y-75509381D01*
X92305333Y-75461762D01*
X92257714Y-75414143D01*
X92210095Y-75318905D01*
X92210095Y-75128429D01*
X92257714Y-75033190D01*
X92305333Y-74985571D01*
X92400571Y-74937952D01*
X106814857Y-64873143D02*
X106862476Y-64920762D01*
X107005333Y-64968381D01*
X107100571Y-64968381D01*
X107243429Y-64920762D01*
X107338667Y-64825524D01*
X107386286Y-64730286D01*
X107433905Y-64539810D01*
X107433905Y-64396952D01*
X107386286Y-64206476D01*
X107338667Y-64111238D01*
X107243429Y-64016000D01*
X107100571Y-63968381D01*
X107005333Y-63968381D01*
X106862476Y-64016000D01*
X106814857Y-64063619D01*
X106481524Y-63968381D02*
X105862476Y-63968381D01*
X106195810Y-64349333D01*
X106052952Y-64349333D01*
X105957714Y-64396952D01*
X105910095Y-64444571D01*
X105862476Y-64539810D01*
X105862476Y-64777905D01*
X105910095Y-64873143D01*
X105957714Y-64920762D01*
X106052952Y-64968381D01*
X106338667Y-64968381D01*
X106433905Y-64920762D01*
X106481524Y-64873143D01*
X105386286Y-64968381D02*
X105195810Y-64968381D01*
X105100571Y-64920762D01*
X105052952Y-64873143D01*
X104957714Y-64730286D01*
X104910095Y-64539810D01*
X104910095Y-64158857D01*
X104957714Y-64063619D01*
X105005333Y-64016000D01*
X105100571Y-63968381D01*
X105291048Y-63968381D01*
X105386286Y-64016000D01*
X105433905Y-64063619D01*
X105481524Y-64158857D01*
X105481524Y-64396952D01*
X105433905Y-64492190D01*
X105386286Y-64539810D01*
X105291048Y-64587429D01*
X105100571Y-64587429D01*
X105005333Y-64539810D01*
X104957714Y-64492190D01*
X104910095Y-64396952D01*
X116212857Y-69572143D02*
X116260476Y-69619762D01*
X116403333Y-69667381D01*
X116498571Y-69667381D01*
X116641429Y-69619762D01*
X116736667Y-69524524D01*
X116784286Y-69429286D01*
X116831905Y-69238810D01*
X116831905Y-69095952D01*
X116784286Y-68905476D01*
X116736667Y-68810238D01*
X116641429Y-68715000D01*
X116498571Y-68667381D01*
X116403333Y-68667381D01*
X116260476Y-68715000D01*
X116212857Y-68762619D01*
X115355714Y-69000714D02*
X115355714Y-69667381D01*
X115593810Y-68619762D02*
X115831905Y-69334048D01*
X115212857Y-69334048D01*
X114641429Y-68667381D02*
X114546190Y-68667381D01*
X114450952Y-68715000D01*
X114403333Y-68762619D01*
X114355714Y-68857857D01*
X114308095Y-69048333D01*
X114308095Y-69286429D01*
X114355714Y-69476905D01*
X114403333Y-69572143D01*
X114450952Y-69619762D01*
X114546190Y-69667381D01*
X114641429Y-69667381D01*
X114736667Y-69619762D01*
X114784286Y-69572143D01*
X114831905Y-69476905D01*
X114879524Y-69286429D01*
X114879524Y-69048333D01*
X114831905Y-68857857D01*
X114784286Y-68762619D01*
X114736667Y-68715000D01*
X114641429Y-68667381D01*
X116212857Y-76303143D02*
X116260476Y-76350762D01*
X116403333Y-76398381D01*
X116498571Y-76398381D01*
X116641429Y-76350762D01*
X116736667Y-76255524D01*
X116784286Y-76160286D01*
X116831905Y-75969810D01*
X116831905Y-75826952D01*
X116784286Y-75636476D01*
X116736667Y-75541238D01*
X116641429Y-75446000D01*
X116498571Y-75398381D01*
X116403333Y-75398381D01*
X116260476Y-75446000D01*
X116212857Y-75493619D01*
X115355714Y-75731714D02*
X115355714Y-76398381D01*
X115593810Y-75350762D02*
X115831905Y-76065048D01*
X115212857Y-76065048D01*
X114308095Y-76398381D02*
X114879524Y-76398381D01*
X114593810Y-76398381D02*
X114593810Y-75398381D01*
X114689048Y-75541238D01*
X114784286Y-75636476D01*
X114879524Y-75684095D01*
X116212857Y-77827143D02*
X116260476Y-77874762D01*
X116403333Y-77922381D01*
X116498571Y-77922381D01*
X116641429Y-77874762D01*
X116736667Y-77779524D01*
X116784286Y-77684286D01*
X116831905Y-77493810D01*
X116831905Y-77350952D01*
X116784286Y-77160476D01*
X116736667Y-77065238D01*
X116641429Y-76970000D01*
X116498571Y-76922381D01*
X116403333Y-76922381D01*
X116260476Y-76970000D01*
X116212857Y-77017619D01*
X115355714Y-77255714D02*
X115355714Y-77922381D01*
X115593810Y-76874762D02*
X115831905Y-77589048D01*
X115212857Y-77589048D01*
X114879524Y-77017619D02*
X114831905Y-76970000D01*
X114736667Y-76922381D01*
X114498571Y-76922381D01*
X114403333Y-76970000D01*
X114355714Y-77017619D01*
X114308095Y-77112857D01*
X114308095Y-77208095D01*
X114355714Y-77350952D01*
X114927143Y-77922381D01*
X114308095Y-77922381D01*
X116212857Y-74779143D02*
X116260476Y-74826762D01*
X116403333Y-74874381D01*
X116498571Y-74874381D01*
X116641429Y-74826762D01*
X116736667Y-74731524D01*
X116784286Y-74636286D01*
X116831905Y-74445810D01*
X116831905Y-74302952D01*
X116784286Y-74112476D01*
X116736667Y-74017238D01*
X116641429Y-73922000D01*
X116498571Y-73874381D01*
X116403333Y-73874381D01*
X116260476Y-73922000D01*
X116212857Y-73969619D01*
X115355714Y-74207714D02*
X115355714Y-74874381D01*
X115593810Y-73826762D02*
X115831905Y-74541048D01*
X115212857Y-74541048D01*
X114927143Y-73874381D02*
X114308095Y-73874381D01*
X114641429Y-74255333D01*
X114498571Y-74255333D01*
X114403333Y-74302952D01*
X114355714Y-74350571D01*
X114308095Y-74445810D01*
X114308095Y-74683905D01*
X114355714Y-74779143D01*
X114403333Y-74826762D01*
X114498571Y-74874381D01*
X114784286Y-74874381D01*
X114879524Y-74826762D01*
X114927143Y-74779143D01*
X107037143Y-82542143D02*
X107084762Y-82494524D01*
X107132381Y-82351667D01*
X107132381Y-82256429D01*
X107084762Y-82113571D01*
X106989524Y-82018333D01*
X106894286Y-81970714D01*
X106703810Y-81923095D01*
X106560952Y-81923095D01*
X106370476Y-81970714D01*
X106275238Y-82018333D01*
X106180000Y-82113571D01*
X106132381Y-82256429D01*
X106132381Y-82351667D01*
X106180000Y-82494524D01*
X106227619Y-82542143D01*
X106465714Y-83399286D02*
X107132381Y-83399286D01*
X106084762Y-83161190D02*
X106799048Y-82923095D01*
X106799048Y-83542143D01*
X106465714Y-84351667D02*
X107132381Y-84351667D01*
X106084762Y-84113571D02*
X106799048Y-83875476D01*
X106799048Y-84494524D01*
X108561143Y-82542143D02*
X108608762Y-82494524D01*
X108656381Y-82351667D01*
X108656381Y-82256429D01*
X108608762Y-82113571D01*
X108513524Y-82018333D01*
X108418286Y-81970714D01*
X108227810Y-81923095D01*
X108084952Y-81923095D01*
X107894476Y-81970714D01*
X107799238Y-82018333D01*
X107704000Y-82113571D01*
X107656381Y-82256429D01*
X107656381Y-82351667D01*
X107704000Y-82494524D01*
X107751619Y-82542143D01*
X107989714Y-83399286D02*
X108656381Y-83399286D01*
X107608762Y-83161190D02*
X108323048Y-82923095D01*
X108323048Y-83542143D01*
X107656381Y-84399286D02*
X107656381Y-83923095D01*
X108132571Y-83875476D01*
X108084952Y-83923095D01*
X108037333Y-84018333D01*
X108037333Y-84256429D01*
X108084952Y-84351667D01*
X108132571Y-84399286D01*
X108227810Y-84446905D01*
X108465905Y-84446905D01*
X108561143Y-84399286D01*
X108608762Y-84351667D01*
X108656381Y-84256429D01*
X108656381Y-84018333D01*
X108608762Y-83923095D01*
X108561143Y-83875476D01*
X111132857Y-62079143D02*
X111180476Y-62126762D01*
X111323333Y-62174381D01*
X111418571Y-62174381D01*
X111561429Y-62126762D01*
X111656667Y-62031524D01*
X111704286Y-61936286D01*
X111751905Y-61745810D01*
X111751905Y-61602952D01*
X111704286Y-61412476D01*
X111656667Y-61317238D01*
X111561429Y-61222000D01*
X111418571Y-61174381D01*
X111323333Y-61174381D01*
X111180476Y-61222000D01*
X111132857Y-61269619D01*
X110275714Y-61507714D02*
X110275714Y-62174381D01*
X110513810Y-61126762D02*
X110751905Y-61841048D01*
X110132857Y-61841048D01*
X109609048Y-61602952D02*
X109704286Y-61555333D01*
X109751905Y-61507714D01*
X109799524Y-61412476D01*
X109799524Y-61364857D01*
X109751905Y-61269619D01*
X109704286Y-61222000D01*
X109609048Y-61174381D01*
X109418571Y-61174381D01*
X109323333Y-61222000D01*
X109275714Y-61269619D01*
X109228095Y-61364857D01*
X109228095Y-61412476D01*
X109275714Y-61507714D01*
X109323333Y-61555333D01*
X109418571Y-61602952D01*
X109609048Y-61602952D01*
X109704286Y-61650571D01*
X109751905Y-61698190D01*
X109799524Y-61793429D01*
X109799524Y-61983905D01*
X109751905Y-62079143D01*
X109704286Y-62126762D01*
X109609048Y-62174381D01*
X109418571Y-62174381D01*
X109323333Y-62126762D01*
X109275714Y-62079143D01*
X109228095Y-61983905D01*
X109228095Y-61793429D01*
X109275714Y-61698190D01*
X109323333Y-61650571D01*
X109418571Y-61602952D01*
X100972857Y-64873143D02*
X101020476Y-64920762D01*
X101163333Y-64968381D01*
X101258571Y-64968381D01*
X101401429Y-64920762D01*
X101496667Y-64825524D01*
X101544286Y-64730286D01*
X101591905Y-64539810D01*
X101591905Y-64396952D01*
X101544286Y-64206476D01*
X101496667Y-64111238D01*
X101401429Y-64016000D01*
X101258571Y-63968381D01*
X101163333Y-63968381D01*
X101020476Y-64016000D01*
X100972857Y-64063619D01*
X100115714Y-64301714D02*
X100115714Y-64968381D01*
X100353810Y-63920762D02*
X100591905Y-64635048D01*
X99972857Y-64635048D01*
X99544286Y-64968381D02*
X99353810Y-64968381D01*
X99258571Y-64920762D01*
X99210952Y-64873143D01*
X99115714Y-64730286D01*
X99068095Y-64539810D01*
X99068095Y-64158857D01*
X99115714Y-64063619D01*
X99163333Y-64016000D01*
X99258571Y-63968381D01*
X99449048Y-63968381D01*
X99544286Y-64016000D01*
X99591905Y-64063619D01*
X99639524Y-64158857D01*
X99639524Y-64396952D01*
X99591905Y-64492190D01*
X99544286Y-64539810D01*
X99449048Y-64587429D01*
X99258571Y-64587429D01*
X99163333Y-64539810D01*
X99115714Y-64492190D01*
X99068095Y-64396952D01*
X94114857Y-73890143D02*
X94162476Y-73937762D01*
X94305333Y-73985381D01*
X94400571Y-73985381D01*
X94543429Y-73937762D01*
X94638667Y-73842524D01*
X94686286Y-73747286D01*
X94733905Y-73556810D01*
X94733905Y-73413952D01*
X94686286Y-73223476D01*
X94638667Y-73128238D01*
X94543429Y-73033000D01*
X94400571Y-72985381D01*
X94305333Y-72985381D01*
X94162476Y-73033000D01*
X94114857Y-73080619D01*
X93210095Y-72985381D02*
X93686286Y-72985381D01*
X93733905Y-73461571D01*
X93686286Y-73413952D01*
X93591048Y-73366333D01*
X93352952Y-73366333D01*
X93257714Y-73413952D01*
X93210095Y-73461571D01*
X93162476Y-73556810D01*
X93162476Y-73794905D01*
X93210095Y-73890143D01*
X93257714Y-73937762D01*
X93352952Y-73985381D01*
X93591048Y-73985381D01*
X93686286Y-73937762D01*
X93733905Y-73890143D01*
X92210095Y-73985381D02*
X92781524Y-73985381D01*
X92495810Y-73985381D02*
X92495810Y-72985381D01*
X92591048Y-73128238D01*
X92686286Y-73223476D01*
X92781524Y-73271095D01*
X116604381Y-93305334D02*
X116128190Y-92972000D01*
X116604381Y-92733905D02*
X115604381Y-92733905D01*
X115604381Y-93114858D01*
X115652000Y-93210096D01*
X115699619Y-93257715D01*
X115794857Y-93305334D01*
X115937714Y-93305334D01*
X116032952Y-93257715D01*
X116080571Y-93210096D01*
X116128190Y-93114858D01*
X116128190Y-92733905D01*
X116604381Y-94257715D02*
X116604381Y-93686286D01*
X116604381Y-93972000D02*
X115604381Y-93972000D01*
X115747238Y-93876762D01*
X115842476Y-93781524D01*
X115890095Y-93686286D01*
X116604381Y-88817334D02*
X116128190Y-88484000D01*
X116604381Y-88245905D02*
X115604381Y-88245905D01*
X115604381Y-88626858D01*
X115652000Y-88722096D01*
X115699619Y-88769715D01*
X115794857Y-88817334D01*
X115937714Y-88817334D01*
X116032952Y-88769715D01*
X116080571Y-88722096D01*
X116128190Y-88626858D01*
X116128190Y-88245905D01*
X115699619Y-89198286D02*
X115652000Y-89245905D01*
X115604381Y-89341143D01*
X115604381Y-89579239D01*
X115652000Y-89674477D01*
X115699619Y-89722096D01*
X115794857Y-89769715D01*
X115890095Y-89769715D01*
X116032952Y-89722096D01*
X116604381Y-89150667D01*
X116604381Y-89769715D01*
X105068666Y-91966381D02*
X105402000Y-91490190D01*
X105640095Y-91966381D02*
X105640095Y-90966381D01*
X105259142Y-90966381D01*
X105163904Y-91014000D01*
X105116285Y-91061619D01*
X105068666Y-91156857D01*
X105068666Y-91299714D01*
X105116285Y-91394952D01*
X105163904Y-91442571D01*
X105259142Y-91490190D01*
X105640095Y-91490190D01*
X104735333Y-90966381D02*
X104116285Y-90966381D01*
X104449619Y-91347333D01*
X104306761Y-91347333D01*
X104211523Y-91394952D01*
X104163904Y-91442571D01*
X104116285Y-91537810D01*
X104116285Y-91775905D01*
X104163904Y-91871143D01*
X104211523Y-91918762D01*
X104306761Y-91966381D01*
X104592476Y-91966381D01*
X104687714Y-91918762D01*
X104735333Y-91871143D01*
X81700666Y-88156381D02*
X82034000Y-87680190D01*
X82272095Y-88156381D02*
X82272095Y-87156381D01*
X81891142Y-87156381D01*
X81795904Y-87204000D01*
X81748285Y-87251619D01*
X81700666Y-87346857D01*
X81700666Y-87489714D01*
X81748285Y-87584952D01*
X81795904Y-87632571D01*
X81891142Y-87680190D01*
X82272095Y-87680190D01*
X81129238Y-87584952D02*
X81224476Y-87537333D01*
X81272095Y-87489714D01*
X81319714Y-87394476D01*
X81319714Y-87346857D01*
X81272095Y-87251619D01*
X81224476Y-87204000D01*
X81129238Y-87156381D01*
X80938761Y-87156381D01*
X80843523Y-87204000D01*
X80795904Y-87251619D01*
X80748285Y-87346857D01*
X80748285Y-87394476D01*
X80795904Y-87489714D01*
X80843523Y-87537333D01*
X80938761Y-87584952D01*
X81129238Y-87584952D01*
X81224476Y-87632571D01*
X81272095Y-87680190D01*
X81319714Y-87775429D01*
X81319714Y-87965905D01*
X81272095Y-88061143D01*
X81224476Y-88108762D01*
X81129238Y-88156381D01*
X80938761Y-88156381D01*
X80843523Y-88108762D01*
X80795904Y-88061143D01*
X80748285Y-87965905D01*
X80748285Y-87775429D01*
X80795904Y-87680190D01*
X80843523Y-87632571D01*
X80938761Y-87584952D01*
X87542666Y-91638381D02*
X87876000Y-91162190D01*
X88114095Y-91638381D02*
X88114095Y-90638381D01*
X87733142Y-90638381D01*
X87637904Y-90686000D01*
X87590285Y-90733619D01*
X87542666Y-90828857D01*
X87542666Y-90971714D01*
X87590285Y-91066952D01*
X87637904Y-91114571D01*
X87733142Y-91162190D01*
X88114095Y-91162190D01*
X87066476Y-91638381D02*
X86876000Y-91638381D01*
X86780761Y-91590762D01*
X86733142Y-91543143D01*
X86637904Y-91400286D01*
X86590285Y-91209810D01*
X86590285Y-90828857D01*
X86637904Y-90733619D01*
X86685523Y-90686000D01*
X86780761Y-90638381D01*
X86971238Y-90638381D01*
X87066476Y-90686000D01*
X87114095Y-90733619D01*
X87161714Y-90828857D01*
X87161714Y-91066952D01*
X87114095Y-91162190D01*
X87066476Y-91209810D01*
X86971238Y-91257429D01*
X86780761Y-91257429D01*
X86685523Y-91209810D01*
X86637904Y-91162190D01*
X86590285Y-91066952D01*
X87256857Y-81224381D02*
X87590191Y-80748190D01*
X87828286Y-81224381D02*
X87828286Y-80224381D01*
X87447333Y-80224381D01*
X87352095Y-80272000D01*
X87304476Y-80319619D01*
X87256857Y-80414857D01*
X87256857Y-80557714D01*
X87304476Y-80652952D01*
X87352095Y-80700571D01*
X87447333Y-80748190D01*
X87828286Y-80748190D01*
X86304476Y-81224381D02*
X86875905Y-81224381D01*
X86590191Y-81224381D02*
X86590191Y-80224381D01*
X86685429Y-80367238D01*
X86780667Y-80462476D01*
X86875905Y-80510095D01*
X85685429Y-80224381D02*
X85590190Y-80224381D01*
X85494952Y-80272000D01*
X85447333Y-80319619D01*
X85399714Y-80414857D01*
X85352095Y-80605333D01*
X85352095Y-80843429D01*
X85399714Y-81033905D01*
X85447333Y-81129143D01*
X85494952Y-81176762D01*
X85590190Y-81224381D01*
X85685429Y-81224381D01*
X85780667Y-81176762D01*
X85828286Y-81129143D01*
X85875905Y-81033905D01*
X85923524Y-80843429D01*
X85923524Y-80605333D01*
X85875905Y-80414857D01*
X85828286Y-80319619D01*
X85780667Y-80272000D01*
X85685429Y-80224381D01*
X89796857Y-62174381D02*
X90130191Y-61698190D01*
X90368286Y-62174381D02*
X90368286Y-61174381D01*
X89987333Y-61174381D01*
X89892095Y-61222000D01*
X89844476Y-61269619D01*
X89796857Y-61364857D01*
X89796857Y-61507714D01*
X89844476Y-61602952D01*
X89892095Y-61650571D01*
X89987333Y-61698190D01*
X90368286Y-61698190D01*
X88844476Y-62174381D02*
X89415905Y-62174381D01*
X89130191Y-62174381D02*
X89130191Y-61174381D01*
X89225429Y-61317238D01*
X89320667Y-61412476D01*
X89415905Y-61460095D01*
X87892095Y-62174381D02*
X88463524Y-62174381D01*
X88177810Y-62174381D02*
X88177810Y-61174381D01*
X88273048Y-61317238D01*
X88368286Y-61412476D01*
X88463524Y-61460095D01*
X86494857Y-76726381D02*
X86828191Y-76250190D01*
X87066286Y-76726381D02*
X87066286Y-75726381D01*
X86685333Y-75726381D01*
X86590095Y-75774000D01*
X86542476Y-75821619D01*
X86494857Y-75916857D01*
X86494857Y-76059714D01*
X86542476Y-76154952D01*
X86590095Y-76202571D01*
X86685333Y-76250190D01*
X87066286Y-76250190D01*
X85542476Y-76726381D02*
X86113905Y-76726381D01*
X85828191Y-76726381D02*
X85828191Y-75726381D01*
X85923429Y-75869238D01*
X86018667Y-75964476D01*
X86113905Y-76012095D01*
X85161524Y-75821619D02*
X85113905Y-75774000D01*
X85018667Y-75726381D01*
X84780571Y-75726381D01*
X84685333Y-75774000D01*
X84637714Y-75821619D01*
X84590095Y-75916857D01*
X84590095Y-76012095D01*
X84637714Y-76154952D01*
X85209143Y-76726381D01*
X84590095Y-76726381D01*
X92709905Y-90638381D02*
X92709905Y-91447905D01*
X92662286Y-91543143D01*
X92614667Y-91590762D01*
X92519429Y-91638381D01*
X92328952Y-91638381D01*
X92233714Y-91590762D01*
X92186095Y-91543143D01*
X92138476Y-91447905D01*
X92138476Y-90638381D01*
X91757524Y-90638381D02*
X91138476Y-90638381D01*
X91471810Y-91019333D01*
X91328952Y-91019333D01*
X91233714Y-91066952D01*
X91186095Y-91114571D01*
X91138476Y-91209810D01*
X91138476Y-91447905D01*
X91186095Y-91543143D01*
X91233714Y-91590762D01*
X91328952Y-91638381D01*
X91614667Y-91638381D01*
X91709905Y-91590762D01*
X91757524Y-91543143D01*
X83811905Y-72826381D02*
X83240476Y-72826381D01*
X83526191Y-73826381D02*
X83526191Y-72826381D01*
X82907143Y-73826381D02*
X82907143Y-72826381D01*
X82526190Y-72826381D01*
X82430952Y-72874000D01*
X82383333Y-72921619D01*
X82335714Y-73016857D01*
X82335714Y-73159714D01*
X82383333Y-73254952D01*
X82430952Y-73302571D01*
X82526190Y-73350190D01*
X82907143Y-73350190D01*
X81383333Y-73826381D02*
X81954762Y-73826381D01*
X81669048Y-73826381D02*
X81669048Y-72826381D01*
X81764286Y-72969238D01*
X81859524Y-73064476D01*
X81954762Y-73112095D01*
X97781905Y-81462381D02*
X97210476Y-81462381D01*
X97496191Y-82462381D02*
X97496191Y-81462381D01*
X96877143Y-82462381D02*
X96877143Y-81462381D01*
X96496190Y-81462381D01*
X96400952Y-81510000D01*
X96353333Y-81557619D01*
X96305714Y-81652857D01*
X96305714Y-81795714D01*
X96353333Y-81890952D01*
X96400952Y-81938571D01*
X96496190Y-81986190D01*
X96877143Y-81986190D01*
X95924762Y-81557619D02*
X95877143Y-81510000D01*
X95781905Y-81462381D01*
X95543809Y-81462381D01*
X95448571Y-81510000D01*
X95400952Y-81557619D01*
X95353333Y-81652857D01*
X95353333Y-81748095D01*
X95400952Y-81890952D01*
X95972381Y-82462381D01*
X95353333Y-82462381D01*
X96765905Y-92384381D02*
X96194476Y-92384381D01*
X96480191Y-93384381D02*
X96480191Y-92384381D01*
X95861143Y-93384381D02*
X95861143Y-92384381D01*
X95480190Y-92384381D01*
X95384952Y-92432000D01*
X95337333Y-92479619D01*
X95289714Y-92574857D01*
X95289714Y-92717714D01*
X95337333Y-92812952D01*
X95384952Y-92860571D01*
X95480190Y-92908190D01*
X95861143Y-92908190D01*
X94432571Y-92717714D02*
X94432571Y-93384381D01*
X94670667Y-92336762D02*
X94908762Y-93051048D01*
X94289714Y-93051048D01*
X101083905Y-90606381D02*
X100512476Y-90606381D01*
X100798191Y-91606381D02*
X100798191Y-90606381D01*
X100179143Y-91606381D02*
X100179143Y-90606381D01*
X99798190Y-90606381D01*
X99702952Y-90654000D01*
X99655333Y-90701619D01*
X99607714Y-90796857D01*
X99607714Y-90939714D01*
X99655333Y-91034952D01*
X99702952Y-91082571D01*
X99798190Y-91130190D01*
X100179143Y-91130190D01*
X98702952Y-90606381D02*
X99179143Y-90606381D01*
X99226762Y-91082571D01*
X99179143Y-91034952D01*
X99083905Y-90987333D01*
X98845809Y-90987333D01*
X98750571Y-91034952D01*
X98702952Y-91082571D01*
X98655333Y-91177810D01*
X98655333Y-91415905D01*
X98702952Y-91511143D01*
X98750571Y-91558762D01*
X98845809Y-91606381D01*
X99083905Y-91606381D01*
X99179143Y-91558762D01*
X99226762Y-91511143D01*
X113783905Y-96194381D02*
X113212476Y-96194381D01*
X113498191Y-97194381D02*
X113498191Y-96194381D01*
X112879143Y-97194381D02*
X112879143Y-96194381D01*
X112498190Y-96194381D01*
X112402952Y-96242000D01*
X112355333Y-96289619D01*
X112307714Y-96384857D01*
X112307714Y-96527714D01*
X112355333Y-96622952D01*
X112402952Y-96670571D01*
X112498190Y-96718190D01*
X112879143Y-96718190D01*
X111450571Y-96194381D02*
X111641048Y-96194381D01*
X111736286Y-96242000D01*
X111783905Y-96289619D01*
X111879143Y-96432476D01*
X111926762Y-96622952D01*
X111926762Y-97003905D01*
X111879143Y-97099143D01*
X111831524Y-97146762D01*
X111736286Y-97194381D01*
X111545809Y-97194381D01*
X111450571Y-97146762D01*
X111402952Y-97099143D01*
X111355333Y-97003905D01*
X111355333Y-96765810D01*
X111402952Y-96670571D01*
X111450571Y-96622952D01*
X111545809Y-96575333D01*
X111736286Y-96575333D01*
X111831524Y-96622952D01*
X111879143Y-96670571D01*
X111926762Y-96765810D01*
M02*
